<?xml version="1.0" encoding="UTF-8"?>
<svg width="857" height="892" viewBox="0 0 857 892" fill="none" xmlns="http://www.w3.org/2000/svg">
<g clip-path="url(#clip0_119_24086)">
<circle cx="434.023" cy="418.38" r="406" fill="#FFF2E2" stroke="#222222" stroke-width="18"></circle>
<path d="M165.29 196.437L170.312 220.083L168.95 219.713L171.616 231.785L165.13 228.792L159.394 203.95L165.29 196.437ZM152.108 213.232L178.067 233.607L172.758 240.372L146.799 219.997L152.108 213.232ZM166.023 213.157L191.62 216.34L185.6 224.01L165.817 221.195L166.023 213.157ZM215.184 191.689L209.06 198.079L202.091 194.584L194.271 202.742L198.024 209.594L192.039 215.838L176.241 184.629L183.368 177.193L215.184 191.689ZM191.155 197.539L196.76 191.691L184.32 185.378L191.155 197.539ZM208.643 153.868C211.635 151.315 214.561 150.045 217.421 150.058C220.284 150.025 222.711 151.175 224.702 153.508C226.887 156.069 227.729 158.724 227.227 161.475C226.726 164.225 224.979 166.877 221.987 169.43L221.671 170.291L216.688 174.543L224.509 183.709L218.081 189.194L196.661 164.091L208.643 153.868ZM217.369 165.943C218.637 164.861 219.371 163.796 219.572 162.748C219.774 161.7 219.398 160.618 218.446 159.503C217.516 158.412 216.517 157.884 215.451 157.918C214.384 157.952 213.217 158.509 211.949 159.591L207.308 163.551L212.728 169.903L217.369 165.943ZM222.379 164.034L241.017 169.624L233.79 175.79L217.983 170.283L222.379 164.034ZM258.09 118.543L276.364 146.021L270.036 150.23L261.646 137.615L256.234 129.025L256.15 129.081L263.375 154.66L257.588 158.509L236.791 141.956L236.708 142.011L242.537 150.324L250.926 162.939L244.557 167.176L226.282 139.698L236.482 132.914L250.115 144.023L255.532 148.827L255.615 148.772L253.349 141.933L248.306 125.05L258.09 118.543ZM309.421 128.854L301.52 132.842L296.11 127.227L286.022 132.319L287.281 140.028L279.558 143.926L275.046 109.239L284.241 104.598L309.421 128.854ZM284.814 126.375L292.046 122.725L282.415 112.632L284.814 126.375ZM350.099 104.562C350.215 106.944 349.841 109.067 348.978 110.928C348.105 112.758 346.859 114.307 345.241 115.575C343.611 116.811 341.688 117.793 339.471 118.52C336.304 119.559 333.356 119.825 330.629 119.317C327.891 118.776 325.509 117.506 323.484 115.504C321.459 113.502 319.891 110.806 318.779 107.418C317.667 104.029 317.334 100.928 317.779 98.1156C318.225 95.3032 319.396 92.8844 321.292 90.8589C323.178 88.8018 325.689 87.2589 328.825 86.2302C331.01 85.5132 333.125 85.1701 335.17 85.2009C337.205 85.1999 339.063 85.6251 340.746 86.4764C342.428 87.3276 343.866 88.6626 345.059 90.4813L338.836 95.7329C337.748 93.9147 336.578 92.8076 335.326 92.4117C334.105 92.0053 332.734 92.0515 331.214 92.5503C329.725 93.0387 328.546 93.8289 327.677 94.9211C326.839 96.0029 326.358 97.3709 326.234 99.0253C326.132 100.638 326.434 102.521 327.14 104.674C327.837 106.796 328.693 108.498 329.709 109.778C330.726 111.058 331.892 111.886 333.208 112.261C334.555 112.626 336.037 112.543 337.652 112.013C339.172 111.514 340.32 110.682 341.095 109.515C341.891 108.307 342.194 106.769 342.002 104.903L350.099 104.562ZM365.459 76.6723C368.725 76.0035 371.67 76.0977 374.295 76.9551C376.947 77.7731 379.163 79.2926 380.945 81.5136C382.727 83.7345 383.976 86.5921 384.692 90.0862C385.407 93.5804 385.382 96.6988 384.617 99.4414C383.852 102.184 382.414 104.469 380.305 106.296C378.221 108.084 375.546 109.312 372.281 109.981C369.015 110.65 366.057 110.575 363.405 109.757C360.747 108.906 358.527 107.371 356.746 105.15C354.964 102.929 353.715 100.071 352.999 96.577C352.284 93.0828 352.309 89.9644 353.074 87.2218C353.839 84.4791 355.28 82.2106 357.396 80.4161C359.506 78.589 362.194 77.3411 365.459 76.6723ZM366.813 83.285C365.246 83.606 364 84.2524 363.076 85.2242C362.153 86.196 361.567 87.4898 361.32 89.1057C361.065 90.6889 361.166 92.5907 361.62 94.8113C362.069 96.9992 362.724 98.7874 363.587 100.176C364.45 101.564 365.497 102.524 366.728 103.054C367.96 103.584 369.359 103.689 370.926 103.368C372.494 103.047 373.723 102.404 374.614 101.439C375.538 100.467 376.124 99.1734 376.371 97.5575C376.619 95.9417 376.519 94.0398 376.07 91.8519C375.616 89.6313 374.96 87.8431 374.104 86.4873C373.241 85.0989 372.194 84.1394 370.963 83.6091C369.764 83.072 368.381 82.964 366.813 83.285ZM429.761 70.0904L431.956 103.017L424.373 103.523L423.365 88.4064L422.94 78.2622L422.84 78.2689L416.391 104.055L409.456 104.517L399.641 79.8153L399.541 79.8219L400.466 89.9328L401.474 105.049L393.841 105.558L391.646 72.6311L403.869 71.8164L410.174 88.2333L412.486 95.0948L412.586 95.0881L414.019 88.0272L418.037 70.8719L429.761 70.0904ZM469.975 71.741C473.023 72.0764 475.654 72.8522 477.868 74.0683C480.118 75.2549 482.004 76.8542 483.527 78.8661L478.795 83.9289C477.534 82.2811 476.115 81.0016 474.539 80.0903C472.999 79.1496 471.186 78.5644 469.098 78.3347C467.872 78.1998 466.864 78.2229 466.073 78.4041C465.281 78.5853 464.695 78.8896 464.312 79.317C463.93 79.7444 463.706 80.2563 463.64 80.8527C463.564 81.5485 463.813 82.1796 464.388 82.7459C464.999 83.2826 466.016 83.7969 467.437 84.2887L472.817 86.1383C476.013 87.2613 478.293 88.6356 479.657 90.2612C481.021 91.8868 481.57 93.909 481.303 96.3277C481.048 98.647 480.235 100.553 478.863 102.045C477.496 103.504 475.722 104.533 473.544 105.132C471.369 105.697 468.94 105.832 466.256 105.537C464.069 105.296 462.007 104.835 460.07 104.152C458.137 103.436 456.424 102.544 454.932 101.474C453.44 100.404 452.211 99.2295 451.246 97.9495L456 92.688C456.722 93.74 457.638 94.7127 458.747 95.606C459.893 96.4699 461.154 97.1955 462.532 97.7831C463.942 98.3742 465.393 98.7519 466.884 98.9159C468.043 99.0436 469.017 99.0333 469.805 98.8853C470.625 98.7408 471.244 98.4567 471.659 98.033C472.075 97.6092 472.317 97.0826 472.386 96.453C472.463 95.7572 472.278 95.1501 471.832 94.6315C471.39 94.0798 470.491 93.5617 469.136 93.0773L463.22 91.0681C461.412 90.4332 459.818 89.6876 458.436 88.8314C457.092 87.9457 456.071 86.8608 455.374 85.5769C454.68 84.2598 454.434 82.6901 454.635 80.8677C454.861 78.8135 455.624 77.0531 456.926 75.5867C458.231 74.0871 459.995 72.9902 462.218 72.2958C464.44 71.6014 467.026 71.4165 469.975 71.741ZM507.264 78.1492C510.515 78.8847 513.161 80.1836 515.2 82.0461C517.279 83.8835 518.673 86.181 519.382 88.9387C520.091 91.6965 520.052 94.8147 519.266 98.2935C518.479 101.772 517.172 104.604 515.345 106.788C513.518 108.972 511.267 110.462 508.592 111.258C505.957 112.029 503.014 112.047 499.763 111.311C496.512 110.576 493.846 109.29 491.767 107.452C489.695 105.582 488.305 103.269 487.596 100.511C486.887 97.7531 486.926 94.6349 487.713 91.1561C488.5 87.6773 489.807 84.8459 491.633 82.6618C493.46 80.4777 495.708 79.0039 498.375 78.2403C501.05 77.4441 504.013 77.4138 507.264 78.1492ZM505.775 84.7329C504.214 84.3799 502.813 84.4559 501.571 84.961C500.329 85.4661 499.262 86.4039 498.371 87.7744C497.488 89.1124 496.796 90.8868 496.296 93.0977C495.803 95.276 495.664 97.1754 495.878 98.796C496.093 100.417 496.652 101.722 497.556 102.713C498.459 103.703 499.691 104.375 501.252 104.728C502.813 105.081 504.198 105.001 505.407 104.489C506.649 103.984 507.716 103.046 508.607 101.675C509.498 100.305 510.19 98.5302 510.682 96.3519C511.182 94.1411 511.322 92.2417 511.1 90.6536C510.885 89.0331 510.326 87.7276 509.423 86.7371C508.551 85.754 507.336 85.0859 505.775 84.7329ZM531.562 112.594L547.205 117.996L545.035 124.282L521.262 116.073L532.033 84.8803L540.162 87.6874L531.562 112.594ZM570.596 99.2904L557.47 129.568L549.579 126.147L562.706 95.8697L570.596 99.2904ZM591.995 110.303C596.547 112.747 599.349 115.879 600.401 119.697C601.482 123.532 600.777 127.769 598.285 132.409C595.794 137.049 592.651 139.977 588.857 141.194C585.093 142.426 580.935 141.82 576.383 139.376L564.049 132.753L579.661 103.679L591.995 110.303ZM578.709 133.247C581.176 134.572 583.362 134.8 585.266 133.931C587.216 133.048 588.971 131.153 590.532 128.246C592.094 125.338 592.696 122.843 592.339 120.76C592.027 118.663 590.638 116.952 588.171 115.627L584.163 113.474L574.701 131.095L578.709 133.247ZM619.048 166.539L611.766 161.51L614.107 154.073L604.808 147.652L598.641 152.447L591.523 147.532L619.821 126.969L628.296 132.822L619.048 166.539ZM609.449 143.747L616.114 148.35L620.368 135.063L609.449 143.747ZM655.448 154.366C658.423 156.939 660.12 159.64 660.537 162.469C661.002 165.295 660.231 167.868 658.225 170.187C656.023 172.734 653.525 173.966 650.73 173.885C647.936 173.804 645.051 172.477 642.076 169.904L641.177 169.721L636.222 165.437L628.34 174.551L621.949 169.023L643.535 144.063L655.448 154.366ZM644.826 164.813C646.087 165.903 647.251 166.469 648.317 166.51C649.383 166.551 650.396 166.016 651.356 164.907C652.293 163.823 652.665 162.756 652.471 161.707C652.277 160.657 651.549 159.588 650.289 158.497L645.675 154.507L640.213 160.823L644.826 164.813ZM647.469 169.478L644.753 188.746L637.567 182.531L640.629 166.074L647.469 169.478ZM677.351 174.735L653.847 197.899L647.81 191.774L671.314 168.61L677.351 174.735ZM701.897 203.125L696.824 207.425L689.873 199.225L669.773 216.263L664.212 209.702L684.313 192.664L677.329 184.426L682.402 180.126L701.897 203.125ZM679.613 228.419L706.737 209.624L721.375 230.749L715.909 234.536L706.169 220.48L700.662 224.296L708.408 235.475L703.271 239.035L695.525 227.856L689.977 231.7L700.086 246.29L694.62 250.078L679.613 228.419ZM722.86 213.052L727.189 219.299L717.955 220.283L714.424 215.187L722.86 213.052Z" fill="#222222"></path>
<path d="M127.954 344.102L115.216 323.557L116.623 323.443L110.024 312.989L117.14 313.607L130.956 335.036L127.954 344.102ZM134.664 323.834L103.337 313.462L106.04 305.297L137.367 315.669L134.664 323.834ZM121.598 328.619L96.4377 334.299L99.5022 325.043L119.068 320.988L121.598 328.619ZM89.0608 367.592L90.9635 358.949L98.7338 358.304L101.163 347.268L94.3928 343.372L96.2525 334.924L125.987 353.348L123.772 363.407L89.0608 367.592ZM106.533 350.089L104.791 357.999L118.7 356.914L106.533 350.089ZM119.591 390.804C119.141 394.712 117.865 397.635 115.763 399.574C113.691 401.55 111.131 402.363 108.084 402.013C104.74 401.628 102.314 400.259 100.806 397.904C99.2988 395.55 98.7697 392.419 99.2192 388.511L98.8636 387.665L99.612 381.158L87.641 379.781L88.6065 371.387L121.39 375.157L119.591 390.804ZM104.975 387.915C104.785 389.571 104.973 390.851 105.54 391.755C106.107 392.659 107.119 393.195 108.576 393.362C110 393.526 111.091 393.232 111.848 392.481C112.606 391.729 113.08 390.525 113.27 388.869L113.967 382.809L105.672 381.855L104.975 387.915ZM102.61 392.726L85.1613 401.339L86.2469 391.901L101.568 385.158L102.61 392.726ZM118.375 443.612L85.3761 443.841L85.3234 436.241L100.473 436.136L110.625 436.316L110.624 436.216L85.268 428.241L85.2199 421.291L110.463 412.966L110.462 412.866L100.314 413.187L85.1645 413.291L85.1115 405.642L118.111 405.413L118.196 417.663L101.432 422.979L94.4449 424.877L94.4456 424.977L101.409 426.829L118.294 431.863L118.375 443.612ZM89.6115 480.847L88.5042 472.066L95.6078 468.852L94.1939 457.641L86.5085 456.242L85.4261 447.66L119.618 455.039L120.907 465.258L89.6115 480.847ZM100.198 458.496L101.212 466.533L113.95 460.844L100.198 458.496ZM110.155 523.125C107.769 523.128 105.667 522.655 103.848 521.705C102.061 520.747 100.572 519.43 99.3822 517.753C98.2241 516.067 97.3339 514.1 96.7117 511.851C95.8228 508.639 95.6964 505.682 96.3326 502.981C97.0009 500.272 98.3825 497.953 100.477 496.024C102.572 494.096 105.339 492.656 108.776 491.705C112.214 490.754 115.326 490.567 118.115 491.144C120.903 491.721 123.264 493.005 125.198 494.995C127.164 496.975 128.587 499.556 129.467 502.736C130.08 504.953 130.324 507.082 130.197 509.123C130.102 511.155 129.59 512.992 128.66 514.632C127.731 516.273 126.33 517.646 124.457 518.753L119.504 512.289C121.371 511.288 122.532 510.172 122.987 508.939C123.45 507.739 123.468 506.368 123.042 504.826C122.624 503.316 121.89 502.101 120.84 501.181C119.799 500.293 118.455 499.748 116.808 499.547C115.202 499.368 113.307 499.582 111.123 500.186C108.97 500.782 107.231 501.557 105.904 502.512C104.577 503.467 103.696 504.593 103.259 505.89C102.831 507.218 102.844 508.702 103.297 510.341C103.724 511.883 104.502 513.068 105.63 513.897C106.8 514.75 108.321 515.124 110.195 515.021L110.155 523.125ZM139.279 531.59C140.502 534.691 140.919 537.608 140.528 540.342C140.181 543.095 139.068 545.541 137.188 547.68C135.309 549.819 132.71 551.543 129.392 552.852C126.075 554.161 122.999 554.676 120.165 554.397C117.332 554.117 114.833 553.096 112.668 551.334C110.547 549.591 108.875 547.169 107.651 544.069C106.428 540.968 105.99 538.041 106.337 535.288C106.715 532.523 107.844 530.071 109.724 527.932C111.603 525.793 114.202 524.069 117.52 522.76C120.837 521.451 123.913 520.936 126.747 521.216C129.58 521.495 132.064 522.522 134.197 524.296C136.362 526.058 138.055 528.489 139.279 531.59ZM133 534.067C132.413 532.579 131.561 531.464 130.444 530.722C129.327 529.98 127.951 529.627 126.317 529.663C124.714 529.686 122.858 530.114 120.749 530.946C118.672 531.765 117.024 532.72 115.805 533.81C114.587 534.9 113.823 536.097 113.514 537.402C113.204 538.706 113.343 540.103 113.93 541.591C114.518 543.08 115.364 544.179 116.468 544.89C117.585 545.632 118.961 545.985 120.595 545.949C122.229 545.914 124.085 545.486 126.163 544.666C128.271 543.834 129.919 542.88 131.106 541.802C132.325 540.712 133.089 539.515 133.398 538.21C133.72 536.937 133.587 535.556 133 534.067ZM163.819 582.073L134.804 597.793L131.184 591.111L144.504 583.894L153.548 579.279L153.5 579.191L127.373 584.077L124.062 577.966L142.424 558.748L142.377 558.66L133.571 563.715L120.251 570.932L116.607 564.206L145.622 548.486L151.457 559.257L139.163 571.832L133.89 576.793L133.937 576.881L140.953 575.241L158.222 571.742L163.819 582.073ZM181.092 605.778C182.95 608.218 184.202 610.658 184.847 613.1C185.539 615.549 185.681 618.017 185.273 620.507L178.343 620.57C178.668 618.52 178.617 616.611 178.19 614.841C177.81 613.077 176.984 611.36 175.711 609.689C174.964 608.708 174.252 607.993 173.575 607.545C172.898 607.097 172.273 606.882 171.7 606.899C171.127 606.917 170.601 607.108 170.124 607.471C169.567 607.896 169.282 608.511 169.268 609.318C169.301 610.131 169.629 611.222 170.253 612.59L172.622 617.763C174.012 620.852 174.588 623.451 174.351 625.56C174.113 627.668 173.027 629.46 171.091 630.935C169.235 632.349 167.294 633.073 165.267 633.109C163.268 633.124 161.3 632.549 159.364 631.383C157.455 630.198 155.683 628.531 154.046 626.383C152.713 624.633 151.626 622.821 150.785 620.948C149.971 619.054 149.437 617.198 149.183 615.38C148.929 613.561 148.933 611.861 149.195 610.279L156.284 610.096C156.02 611.345 155.946 612.678 156.064 614.098C156.228 615.523 156.572 616.937 157.096 618.34C157.64 619.769 158.367 621.08 159.276 622.274C159.983 623.202 160.661 623.9 161.311 624.368C161.982 624.863 162.614 625.115 163.207 625.124C163.801 625.133 164.349 624.945 164.853 624.562C165.41 624.137 165.722 623.585 165.79 622.904C165.885 622.204 165.641 621.196 165.058 619.88L162.435 614.21C161.648 612.462 161.089 610.793 160.757 609.202C160.472 607.617 160.554 606.13 161.003 604.74C161.479 603.33 162.446 602.069 163.905 600.958C165.549 599.706 167.35 599.045 169.31 598.977C171.296 598.889 173.307 599.41 175.342 600.542C177.377 601.673 179.294 603.419 181.092 605.778ZM201.028 629.218C203.299 631.658 204.753 634.222 205.388 636.91C206.07 639.599 205.927 642.283 204.958 644.961C203.99 647.638 202.2 650.192 199.59 652.622C196.979 655.053 194.304 656.655 191.564 657.43C188.824 658.204 186.125 658.167 183.466 657.317C180.855 656.469 178.414 654.825 176.143 652.385C173.871 649.945 172.395 647.381 171.712 644.691C171.055 641.979 171.21 639.284 172.179 636.606C173.147 633.929 174.936 631.375 177.547 628.944C180.158 626.514 182.833 624.912 185.573 624.137C188.313 623.362 191 623.411 193.634 624.284C196.292 625.134 198.757 626.779 201.028 629.218ZM196.088 633.818C194.997 632.647 193.797 631.92 192.486 631.637C191.176 631.354 189.766 631.528 188.258 632.158C186.774 632.765 185.202 633.841 183.543 635.385C181.909 636.907 180.723 638.398 179.987 639.857C179.251 641.317 178.977 642.71 179.165 644.038C179.354 645.365 179.993 646.615 181.083 647.786C182.173 648.957 183.362 649.672 184.65 649.93C185.961 650.213 187.37 650.039 188.879 649.409C190.387 648.779 191.959 647.703 193.593 646.181C195.253 644.637 196.438 643.146 197.15 641.71C197.886 640.25 198.16 638.856 197.971 637.529C197.806 636.226 197.178 634.989 196.088 633.818ZM202.62 668.667L214.999 679.651L210.585 684.625L191.774 667.932L213.677 643.249L220.11 648.957L202.62 668.667ZM241.451 666.918L221.209 692.981L214.417 687.706L234.659 661.643L241.451 666.918ZM257.118 677.604C261.413 680.475 263.9 683.862 264.579 687.765C265.286 691.685 264.176 695.835 261.249 700.213C258.323 704.592 254.913 707.204 251.019 708.05C247.154 708.914 243.073 707.91 238.778 705.039L227.139 697.258L245.479 669.824L257.118 677.604ZM241.684 699.163C244.012 700.719 246.165 701.156 248.144 700.474C250.17 699.783 252.1 698.066 253.934 695.323C255.768 692.579 256.607 690.154 256.453 688.046C256.344 685.928 255.126 684.092 252.799 682.536L249.016 680.007L237.901 696.634L241.684 699.163ZM282.565 730.398L274.766 726.214L276.262 718.562L266.305 713.219L260.712 718.673L253.09 714.583L278.914 690.989L287.99 695.859L282.565 730.398ZM270.481 708.821L277.618 712.651L280.362 698.972L270.481 708.821ZM313.361 707.538C316.989 709.057 319.441 711.097 320.719 713.655C322.039 716.196 322.108 718.881 320.923 721.71C319.622 724.815 317.631 726.764 314.95 727.556C312.269 728.349 309.115 727.985 305.487 726.465L304.575 726.571L298.534 724.041L293.878 735.155L286.084 731.891L298.834 701.453L313.361 707.538ZM306.517 720.771C308.054 721.415 309.336 721.591 310.362 721.298C311.388 721.005 312.185 720.182 312.751 718.829C313.305 717.507 313.326 716.378 312.815 715.441C312.304 714.504 311.28 713.713 309.743 713.07L304.116 710.713L300.89 718.415L306.517 720.771ZM310.479 724.382L313.894 743.539L305.131 739.869L302.92 723.276L310.479 724.382ZM336.678 716.457L326.105 747.718L317.958 744.963L328.531 713.702L336.678 716.457ZM368.395 725.057L366.689 731.484L356.299 728.725L349.536 754.192L341.224 751.985L347.987 726.518L337.549 723.746L339.255 717.319L368.395 725.057ZM364.734 757.895L370.357 725.378L395.681 729.757L394.548 736.309L377.698 733.396L376.557 739.998L389.958 742.315L388.893 748.474L375.492 746.156L374.342 752.808L391.832 755.832L390.699 762.385L364.734 757.895ZM384.107 716.287L391.596 717.582L385.822 724.855L379.713 723.799L384.107 716.287ZM505.808 725.61L493.43 746.374L492.682 745.177L486.437 755.846L483.711 749.243L496.378 727.117L505.808 725.61ZM484.726 728.979L489.934 761.566L481.442 762.923L476.234 730.337L484.726 728.979ZM494.988 738.378L511.609 758.102L501.981 759.64L489.376 744.135L494.988 738.378ZM544.617 749.54L536.053 751.773L531.948 745.144L521.014 747.995L520.62 755.797L512.249 757.98L515.148 723.121L525.114 720.522L544.617 749.54ZM521.086 741.931L528.924 739.887L521.636 727.991L521.086 741.931ZM551.63 711.833C555.322 710.478 558.507 710.303 561.184 711.309C563.881 712.273 565.758 714.194 566.814 717.073C567.974 720.233 567.841 723.016 566.415 725.421C564.99 727.826 562.431 729.706 558.738 731.061L558.142 731.759L551.993 734.015L556.144 745.328L548.211 748.239L536.844 717.258L551.63 711.833ZM555.619 726.187C557.183 725.613 558.242 724.87 558.795 723.957C559.347 723.044 559.371 721.899 558.866 720.522C558.372 719.176 557.619 718.334 556.607 717.995C555.595 717.657 554.307 717.774 552.742 718.348L547.015 720.45L549.892 728.289L555.619 726.187ZM560.98 726.138L576.516 737.853L567.598 741.125L554.687 730.47L560.98 726.138ZM599.742 689.364L614.54 718.86L607.747 722.268L600.953 708.726L596.625 699.542L596.536 699.587L600.596 725.855L594.384 728.972L575.754 710.012L575.665 710.057L580.44 719.018L587.233 732.559L580.396 735.989L565.598 706.493L576.547 701L588.729 713.684L593.521 719.112L593.61 719.067L592.192 712.003L589.24 694.632L599.742 689.364ZM645.981 698.875L638.564 703.704L632.572 698.715L623.102 704.88L625.197 712.406L617.948 717.125L609.665 683.14L618.297 677.521L645.981 698.875ZM621.251 699.105L628.039 694.685L617.361 685.707L621.251 699.105ZM675.257 662.074C676.287 664.226 676.765 666.327 676.691 668.378C676.595 670.403 676.047 672.314 675.046 674.11C674.023 675.881 672.631 677.531 670.869 679.061C668.352 681.246 665.737 682.633 663.026 683.221C660.292 683.785 657.604 683.536 654.962 682.475C652.319 681.414 649.829 679.537 647.491 676.844C645.153 674.151 643.644 671.421 642.965 668.656C642.286 665.891 642.428 663.207 643.391 660.605C644.333 657.978 646.049 655.583 648.541 653.419C650.278 651.911 652.095 650.775 653.992 650.011C655.867 649.222 657.745 648.894 659.626 649.027C661.507 649.159 663.35 649.833 665.154 651.047L661.453 658.3C659.745 657.045 658.238 656.478 656.93 656.599C655.647 656.697 654.401 657.271 653.193 658.32C652.01 659.347 651.229 660.532 650.851 661.876C650.498 663.198 650.585 664.645 651.112 666.218C651.642 667.744 652.65 669.363 654.136 671.075C655.6 672.761 657.049 673.998 658.482 674.784C659.915 675.571 661.311 675.882 662.669 675.718C664.053 675.532 665.386 674.881 666.67 673.767C667.878 672.718 668.614 671.506 668.876 670.13C669.142 668.708 668.825 667.173 667.925 665.526L675.257 662.074ZM670.41 632.127C672.685 629.691 675.141 628.062 677.778 627.241C680.414 626.373 683.101 626.328 685.839 627.108C688.578 627.887 691.251 629.494 693.857 631.928C696.464 634.363 698.249 636.92 699.213 639.599C700.177 642.279 700.328 644.974 699.665 647.685C699.002 650.349 697.532 652.899 695.257 655.335C692.981 657.771 690.526 659.423 687.891 660.291C685.231 661.136 682.532 661.17 679.793 660.39C677.054 659.611 674.382 658.004 671.775 655.57C669.169 653.135 667.383 650.578 666.419 647.899C665.455 645.219 665.317 642.536 666.003 639.847C666.666 637.136 668.134 634.562 670.41 632.127ZM675.343 636.734C674.25 637.903 673.609 639.152 673.418 640.479C673.228 641.806 673.499 643.2 674.233 644.661C674.943 646.099 676.126 647.591 677.782 649.139C679.414 650.663 680.984 651.742 682.491 652.374C683.998 653.007 685.408 653.183 686.719 652.902C688.03 652.622 689.232 651.897 690.324 650.727C691.416 649.558 692.046 648.322 692.214 647.019C692.404 645.692 692.133 644.298 691.399 642.837C690.665 641.377 689.482 639.884 687.85 638.359C686.194 636.812 684.624 635.734 683.141 635.124C681.634 634.491 680.225 634.315 678.913 634.596C677.625 634.852 676.435 635.565 675.343 636.734ZM705.396 588.294L732.077 607.714L727.604 613.859L715.356 604.943L707.296 598.768L707.238 598.849L722.896 620.327L718.806 625.946L693.555 617.646L693.496 617.727L701.85 623.498L714.098 632.414L709.596 638.599L682.916 619.179L690.125 609.275L706.768 614.957L713.516 617.581L713.575 617.5L709.074 611.874L698.482 597.794L705.396 588.294ZM719.124 562.612C720.508 559.875 722.159 557.685 724.075 556.039C725.976 554.349 728.136 553.144 730.554 552.426L733.633 558.634C731.647 559.236 729.951 560.115 728.544 561.271C727.122 562.382 725.938 563.874 724.989 565.748C724.432 566.849 724.1 567.801 723.992 568.606C723.883 569.41 723.962 570.066 724.228 570.574C724.494 571.083 724.895 571.472 725.43 571.743C726.054 572.059 726.733 572.047 727.465 571.708C728.182 571.324 729.021 570.553 729.981 569.395L733.602 565.007C735.776 562.409 737.864 560.757 739.865 560.051C741.866 559.345 743.952 559.541 746.123 560.64C748.205 561.694 749.703 563.125 750.619 564.933C751.505 566.726 751.845 568.748 751.641 570.998C751.406 573.233 750.679 575.555 749.46 577.964C748.467 579.927 747.31 581.695 745.991 583.269C744.642 584.828 743.204 586.118 741.679 587.139C740.154 588.16 738.622 588.898 737.084 589.353L733.828 583.054C735.066 582.746 736.299 582.231 737.525 581.506C738.736 580.737 739.858 579.811 740.892 578.727C741.941 577.614 742.804 576.389 743.482 575.05C744.008 574.009 744.341 573.094 744.479 572.305C744.632 571.485 744.583 570.807 744.332 570.269C744.081 569.731 743.673 569.319 743.108 569.033C742.484 568.717 741.85 568.677 741.208 568.912C740.536 569.133 739.735 569.792 738.806 570.891L734.847 575.724C733.617 577.194 732.359 578.425 731.073 579.418C729.771 580.365 728.397 580.94 726.95 581.142C725.473 581.329 723.917 581.008 722.281 580.18C720.437 579.247 719.057 577.914 718.141 576.18C717.196 574.431 716.788 572.394 716.918 570.07C717.049 567.745 717.784 565.259 719.124 562.612ZM731.334 534.609C732.519 531.493 734.177 529.057 736.307 527.299C738.418 525.499 740.889 524.442 743.719 524.127C746.549 523.813 749.631 524.289 752.965 525.557C756.298 526.825 758.918 528.517 760.824 530.633C762.729 532.749 763.888 535.187 764.301 537.947C764.694 540.664 764.298 543.58 763.113 546.696C761.928 549.812 760.279 552.27 758.168 554.07C756.026 555.858 753.539 556.91 750.709 557.224C747.879 557.539 744.798 557.062 741.464 555.794C738.13 554.526 735.511 552.834 733.605 550.719C731.699 548.603 730.556 546.171 730.175 543.422C729.762 540.662 730.149 537.724 731.334 534.609ZM737.643 537.008C737.074 538.504 736.952 539.902 737.278 541.203C737.603 542.503 738.382 543.691 739.614 544.766C740.814 545.829 742.474 546.763 744.592 547.569C746.68 548.363 748.541 548.768 750.176 548.783C751.81 548.799 753.181 548.429 754.289 547.673C755.397 546.917 756.235 545.792 756.804 544.296C757.372 542.801 757.488 541.418 757.151 540.149C756.825 538.848 756.047 537.66 754.815 536.586C753.583 535.511 751.924 534.576 749.836 533.783C747.718 532.977 745.857 532.572 744.253 532.568C742.618 532.553 741.247 532.923 740.14 533.679C739.044 534.403 738.212 535.513 737.643 537.008ZM765.934 515.771L770.22 499.786L776.643 501.508L770.13 525.8L738.256 517.254L740.483 508.947L765.934 515.771ZM746.945 481.913L779.328 488.264L777.673 496.703L745.29 490.352L746.945 481.913ZM749.322 463.282C749.925 458.151 751.81 454.395 754.977 452.015C758.147 449.603 762.347 448.704 767.578 449.319C772.808 449.934 776.686 451.783 779.21 454.866C781.737 457.915 782.699 462.006 782.096 467.137L780.46 481.041L747.686 477.186L749.322 463.282ZM775.541 467.222C775.868 464.441 775.278 462.324 773.771 460.871C772.234 459.382 769.827 458.444 766.55 458.059C763.272 457.673 760.73 458.029 758.923 459.125C757.087 460.184 756.005 462.105 755.678 464.885L755.146 469.404L775.01 471.741L775.541 467.222ZM784.537 416.603L784.417 425.452L776.937 427.652L776.784 438.951L784.202 441.401L784.085 450.05L751.245 438.005L751.384 427.706L784.537 416.603ZM770.956 437.272L771.066 429.172L757.662 433.042L770.956 437.272ZM749.921 400.092C749.565 396.175 750.219 393.053 751.882 390.726C753.509 388.37 755.849 387.053 758.904 386.776C762.256 386.471 764.911 387.318 766.866 389.316C768.821 391.314 769.977 394.272 770.332 398.189L770.853 398.945L771.445 405.468L783.445 404.379L784.209 412.794L751.344 415.778L749.921 400.092ZM764.818 399.945C764.668 398.285 764.223 397.07 763.483 396.301C762.744 395.531 761.644 395.212 760.183 395.345C758.756 395.474 757.748 395.984 757.159 396.875C756.571 397.765 756.352 399.04 756.502 400.7L757.054 406.775L765.37 406.02L764.818 399.945ZM766.154 394.753L781.484 382.768L782.343 392.229L768.716 401.951L766.154 394.753ZM746.85 375.505L779.393 370.033L780.819 378.514L748.276 383.986L746.85 375.505ZM739.254 343.783L745.713 342.199L748.274 352.639L773.865 346.362L775.914 354.714L750.323 360.992L752.896 371.481L746.437 373.065L739.254 343.783ZM769.799 331.259L738.655 342.17L730.157 317.916L736.433 315.717L742.087 331.855L748.41 329.64L743.914 316.805L749.812 314.738L754.309 327.574L760.679 325.342L754.81 308.59L761.086 306.391L769.799 331.259ZM724.023 334.581L721.51 327.409L730.673 328.914L732.723 334.765L724.023 334.581Z" fill="#222222"></path>
<path d="M435.588 738.372C442.838 739.614 447.743 746.663 446.455 754.179C445.167 761.695 438.195 766.71 430.945 765.468C423.694 764.226 418.79 757.176 420.078 749.659C421.366 742.143 428.337 737.129 435.588 738.372Z" fill="#FFC72C" stroke="#222222" stroke-width="3"></path>
<path d="M140.508 254.68C147.758 255.923 152.662 262.972 151.375 270.488C150.087 278.004 143.115 283.019 135.864 281.776C128.614 280.534 123.709 273.484 124.997 265.968C126.286 258.452 133.257 253.438 140.508 254.68Z" fill="#FFC72C" stroke="#222222" stroke-width="3"></path>
<path d="M732.179 255.916C739.43 257.158 744.334 264.207 743.047 271.723C741.759 279.239 734.787 284.254 727.536 283.012C720.286 281.769 715.381 274.72 716.669 267.203C717.957 259.687 724.929 254.673 732.179 255.916Z" fill="#FFC72C" stroke="#222222" stroke-width="3"></path>
<circle cx="434.025" cy="420.38" r="264" stroke="white" stroke-width="24"></circle>
<circle cx="433.025" cy="419.38" r="275" fill="#CC336F" stroke="#222222" stroke-width="4"></circle>
<g filter="url(#filter0_d_119_24086)">
<path d="M377.277 318.403C380.707 318.403 384.357 320.675 388.003 325.703C391.616 330.686 394.953 338.026 397.79 347.275C403.456 365.749 406.991 391.393 406.991 419.804C406.991 448.216 403.456 473.858 397.79 492.333C394.953 501.582 391.616 508.922 388.003 513.905C384.357 518.932 380.707 521.204 377.277 521.205C373.848 521.205 370.198 518.933 366.552 513.905C362.938 508.922 359.601 501.582 356.764 492.333C351.097 473.858 347.563 448.215 347.562 419.804C347.562 391.393 351.097 365.749 356.764 347.275C359.601 338.025 362.938 330.686 366.552 325.703C370.198 320.675 373.848 318.403 377.277 318.403Z" fill="white" stroke="#222222" stroke-width="4"></path>
<mask id="path-10-inside-1_119_24086" fill="white">
<path d="M370.244 419.835C370.244 419.835 385.821 444.881 407.497 467.416C427.044 487.739 452.85 505.747 453.895 506.351C460.334 510.069 474.61 517.834 483.479 519.117C495.257 520.82 506.92 522.516 516.573 513.674C526.225 504.833 527.284 491.819 522.088 483.742C516.893 475.666 495.048 457.753 488.995 448.369C479.303 433.343 479.216 424.032 479.158 418.437C479.098 412.842 482.441 401.172 488.995 391.226C497.957 377.621 513.815 364.016 513.815 364.016C513.815 364.016 524.728 352.828 524.846 344.968C524.946 338.3 522.453 329.712 513.815 323.199C505.176 316.687 492.876 317.88 492.154 317.975C485.782 318.801 465.663 323.095 436.597 344.968C400.889 371.837 370.242 419.745 370.242 419.745"></path>
</mask>
<path d="M370.244 419.835C370.244 419.835 385.821 444.881 407.497 467.416C427.044 487.739 452.85 505.747 453.895 506.351C460.334 510.069 474.61 517.834 483.479 519.117C495.257 520.82 506.92 522.516 516.573 513.674C526.225 504.833 527.284 491.819 522.088 483.742C516.893 475.666 495.048 457.753 488.995 448.369C479.303 433.343 479.216 424.032 479.158 418.437C479.098 412.842 482.441 401.172 488.995 391.226C497.957 377.621 513.815 364.016 513.815 364.016C513.815 364.016 524.728 352.828 524.846 344.968C524.946 338.3 522.453 329.712 513.815 323.199C505.176 316.687 492.876 317.88 492.154 317.975C485.782 318.801 465.663 323.095 436.597 344.968C400.889 371.837 370.242 419.745 370.242 419.745" fill="white"></path>
<path d="M407.497 467.416L410.38 464.643L410.38 464.643L407.497 467.416ZM453.895 506.351L451.892 509.813L451.895 509.815L453.895 506.351ZM483.479 519.117L482.906 523.075L482.907 523.076L483.479 519.117ZM516.573 513.674L513.871 510.724L513.871 510.724L516.573 513.674ZM522.088 483.742L525.452 481.578L525.452 481.578L522.088 483.742ZM488.995 448.369L485.633 450.537L485.633 450.537L488.995 448.369ZM479.158 418.437L483.157 418.395L483.157 418.395L479.158 418.437ZM488.995 391.226L492.335 393.427L492.335 393.427L488.995 391.226ZM513.815 364.016L516.419 367.051L516.554 366.936L516.678 366.809L513.815 364.016ZM524.846 344.968L528.846 345.028V345.028L524.846 344.968ZM492.154 317.975L492.669 321.941L492.672 321.941L492.154 317.975ZM436.597 344.968L434.191 341.771L434.191 341.771L436.597 344.968ZM370.244 419.835C366.848 421.947 366.848 421.948 366.848 421.948C366.849 421.949 366.849 421.949 366.849 421.95C366.85 421.951 366.851 421.953 366.852 421.955C366.855 421.959 366.858 421.964 366.863 421.971C366.872 421.985 366.884 422.006 366.901 422.032C366.933 422.084 366.981 422.159 367.043 422.258C367.168 422.455 367.351 422.744 367.591 423.117C368.07 423.863 368.776 424.948 369.688 426.318C371.513 429.057 374.169 432.938 377.508 437.528C384.177 446.696 393.608 458.747 404.614 470.189L407.497 467.416L410.38 464.643C399.71 453.551 390.515 441.81 383.977 432.822C380.712 428.333 378.119 424.544 376.346 421.883C375.459 420.552 374.778 419.504 374.321 418.793C374.093 418.437 373.92 418.166 373.806 417.985C373.749 417.895 373.707 417.827 373.679 417.783C373.665 417.761 373.655 417.745 373.649 417.735C373.646 417.73 373.643 417.726 373.642 417.724C373.642 417.723 373.641 417.722 373.641 417.722C373.641 417.722 373.641 417.722 373.641 417.722C373.641 417.722 373.641 417.722 370.244 419.835ZM407.497 467.416L404.614 470.189C414.565 480.535 426.06 490.244 435.158 497.419C444.162 504.52 451.086 509.347 451.892 509.813L453.895 506.351L455.898 502.889C455.953 502.921 455.606 502.697 454.695 502.06C453.874 501.486 452.725 500.669 451.308 499.637C448.473 497.573 444.58 494.661 440.111 491.137C431.158 484.076 419.976 474.62 410.38 464.643L407.497 467.416ZM453.895 506.351L451.895 509.815C455.166 511.704 460.454 514.636 466.08 517.27C471.602 519.855 477.845 522.343 482.906 523.075L483.479 519.117L484.052 515.158C480.244 514.607 474.914 512.572 469.471 510.024C464.133 507.525 459.063 504.716 455.895 502.887L453.895 506.351ZM483.479 519.117L482.907 523.076C494.339 524.729 508.019 526.933 519.274 516.624L516.573 513.674L513.871 510.724C505.821 518.098 496.176 516.912 484.052 515.158L483.479 519.117ZM516.573 513.674L519.274 516.624C530.243 506.577 531.788 491.427 525.452 481.578L522.088 483.742L518.724 485.906C522.78 492.211 522.207 503.089 513.871 510.724L516.573 513.674ZM522.088 483.742L525.452 481.578C523.915 479.189 521.319 476.302 518.448 473.343C515.522 470.327 512.063 466.987 508.648 463.675C505.207 460.337 501.802 457.019 498.883 453.959C495.926 450.857 493.651 448.208 492.356 446.201L488.995 448.369L485.633 450.537C487.365 453.222 490.091 456.331 493.094 459.48C496.136 462.67 499.652 466.094 503.078 469.417C506.531 472.766 509.885 476.005 512.706 478.913C515.581 481.877 517.664 484.258 518.724 485.906L522.088 483.742ZM488.995 448.369L492.356 446.201C487.717 439.008 485.463 433.321 484.342 428.886C483.223 424.463 483.186 421.132 483.157 418.395L479.158 418.437L475.158 418.479C475.188 421.337 475.223 425.459 476.586 430.847C477.945 436.222 480.581 442.704 485.633 450.537L488.995 448.369ZM479.158 418.437L483.157 418.395C483.135 416.236 483.806 412.405 485.384 407.747C486.938 403.166 489.27 398.078 492.335 393.427L488.995 391.226L485.655 389.025C482.165 394.321 479.55 400.041 477.808 405.179C476.092 410.241 475.121 415.043 475.158 418.479L479.158 418.437ZM488.995 391.226L492.335 393.427C496.598 386.956 502.583 380.375 507.599 375.342C510.09 372.843 512.306 370.761 513.897 369.305C514.692 368.578 515.329 368.009 515.764 367.624C515.982 367.432 516.149 367.286 516.26 367.189C516.316 367.141 516.357 367.105 516.384 367.082C516.397 367.07 516.407 367.062 516.413 367.057C516.416 367.054 516.418 367.052 516.419 367.052C516.42 367.051 516.42 367.051 516.42 367.051C516.42 367.051 516.42 367.051 516.42 367.051C516.42 367.051 516.419 367.051 513.815 364.016C511.21 360.98 511.21 360.98 511.209 360.98C511.209 360.981 511.208 360.981 511.208 360.982C511.207 360.982 511.206 360.983 511.205 360.984C511.202 360.987 511.198 360.99 511.193 360.994C511.184 361.002 511.171 361.014 511.154 361.028C511.12 361.057 511.071 361.1 511.009 361.154C510.883 361.264 510.701 361.423 510.467 361.629C510 362.042 509.329 362.642 508.497 363.403C506.835 364.923 504.527 367.092 501.932 369.695C496.779 374.866 490.355 381.891 485.654 389.026L488.995 391.226ZM513.815 364.016C516.678 366.809 516.678 366.808 516.679 366.808C516.679 366.807 516.68 366.807 516.68 366.806C516.681 366.805 516.682 366.804 516.684 366.803C516.686 366.8 516.69 366.797 516.693 366.793C516.701 366.785 516.712 366.774 516.725 366.76C516.751 366.734 516.787 366.696 516.832 366.648C516.923 366.553 517.052 366.417 517.214 366.243C517.536 365.896 517.99 365.398 518.532 364.778C519.613 363.544 521.062 361.803 522.523 359.789C523.976 357.787 525.496 355.441 526.675 352.999C527.828 350.609 528.803 347.827 528.846 345.028L524.846 344.968L520.846 344.908C520.829 346.039 520.396 347.603 519.47 349.522C518.569 351.388 517.339 353.313 516.049 355.09C514.767 356.855 513.481 358.403 512.511 359.511C512.028 360.063 511.629 360.501 511.354 360.796C511.217 360.944 511.111 361.055 511.042 361.128C511.008 361.164 510.983 361.19 510.967 361.206C510.96 361.214 510.954 361.219 510.952 361.222C510.95 361.224 510.95 361.224 510.95 361.224C510.95 361.224 510.95 361.224 510.95 361.224C510.95 361.224 510.95 361.223 510.951 361.223C510.951 361.223 510.951 361.222 513.815 364.016ZM524.846 344.968L528.846 345.028C528.961 337.306 526.046 327.411 516.223 320.005L513.815 323.199L511.407 326.393C518.861 332.013 520.93 339.295 520.846 344.909L524.846 344.968ZM513.815 323.199L516.223 320.005C511.114 316.154 505.091 314.684 500.487 314.137C495.857 313.588 492.265 313.926 491.637 314.008L492.154 317.975L492.672 321.941C492.653 321.943 492.837 321.921 493.211 321.896C493.57 321.871 494.074 321.845 494.696 321.835C495.943 321.814 497.634 321.855 499.544 322.082C503.43 322.543 507.877 323.732 511.407 326.393L513.815 323.199ZM492.154 317.975L491.64 314.008C484.554 314.927 463.789 319.5 434.191 341.771L436.597 344.968L439.002 348.164C467.537 326.691 487.01 322.676 492.669 321.941L492.154 317.975ZM436.597 344.968L434.191 341.771C415.933 355.511 399.096 374.516 386.891 389.952C380.77 397.693 375.776 404.587 372.31 409.549C370.576 412.031 369.223 414.032 368.3 415.416C367.839 416.109 367.485 416.647 367.245 417.015C367.125 417.199 367.033 417.34 366.971 417.437C366.94 417.485 366.916 417.522 366.9 417.548C366.891 417.56 366.885 417.57 366.881 417.577C366.878 417.581 366.877 417.584 366.875 417.586C366.875 417.587 366.874 417.588 366.874 417.588C366.873 417.589 366.873 417.59 370.242 419.745C373.612 421.901 373.612 421.901 373.611 421.901C373.612 421.901 373.612 421.901 373.612 421.9C373.613 421.899 373.614 421.898 373.615 421.896C373.618 421.891 373.623 421.883 373.629 421.873C373.643 421.852 373.663 421.82 373.691 421.777C373.747 421.691 373.832 421.56 373.945 421.386C374.172 421.039 374.511 420.522 374.958 419.852C375.851 418.512 377.171 416.56 378.868 414.131C382.263 409.27 387.163 402.507 393.167 394.913C405.213 379.678 421.552 361.294 439.002 348.164L436.597 344.968Z" fill="#222222" mask="url(#path-10-inside-1_119_24086)"></path>
<path d="M398.178 367.38L400.185 379.423C400.185 379.423 402.924 404.771 403.033 421.074C403.143 437.56 400.185 460.38 400.185 460.38L398.178 471.88L358.033 421.074L398.178 367.38Z" fill="white"></path>
</g>
</g>
<defs>
<filter id="filter0_d_119_24086" x="345.562" y="316.403" width="185.611" height="212.802" filterUnits="userSpaceOnUse" color-interpolation-filters="sRGB">
<feFlood flood-opacity="0" result="BackgroundImageFix"></feFlood>
<feColorMatrix in="SourceAlpha" type="matrix" values="0 0 0 0 0 0 0 0 0 0 0 0 0 0 0 0 0 0 127 0" result="hardAlpha"></feColorMatrix>
<feOffset dx="6" dy="6"></feOffset>
<feComposite in2="hardAlpha" operator="out"></feComposite>
<feColorMatrix type="matrix" values="0 0 0 0 0.133333 0 0 0 0 0.133333 0 0 0 0 0.133333 0 0 0 1 0"></feColorMatrix>
<feBlend mode="normal" in2="BackgroundImageFix" result="effect1_dropShadow_119_24086"></feBlend>
<feBlend mode="normal" in="SourceGraphic" in2="effect1_dropShadow_119_24086" result="shape"></feBlend>
</filter>
<clipPath id="clip0_119_24086">
<rect width="857" height="892" fill="white"></rect>
</clipPath>
</defs>
</svg>