<?xml version="1.0" encoding="UTF-8"?>
<svg width="440" height="440" viewBox="-20.0 -20.0 440.0 440.0" fill="none" xmlns="http://www.w3.org/2000/svg">
<g clip-path="url(#clip0_171_2496)">
<rect x="6" y="6" width="388" height="388.444" fill="#FFF2E2" stroke="#222222" stroke-width="12"></rect>
<path d="M37.0227 309.77L44.4427 315.97L43.9227 316.19L47.7427 319.33L44.9627 319.99L37.0227 313.59L37.0227 309.77ZM37.0227 318.31L50.2227 318.31L50.2227 321.75L37.0227 321.75L37.0227 318.31ZM41.3827 314.85L50.2227 309.53L50.2227 313.43L43.3027 317.43L41.3827 314.85ZM50.2227 296.483L50.2227 300.023L47.2427 300.943L47.2427 305.463L50.2227 306.403L50.2227 309.863L37.0227 305.223L37.0227 301.103L50.2227 296.483ZM44.9027 304.823L44.9027 301.583L39.5627 303.203L44.9027 304.823ZM37.0227 289.248C37.0227 287.674 37.396 286.454 38.1427 285.588C38.876 284.708 39.856 284.268 41.0827 284.268C42.4293 284.268 43.456 284.701 44.1627 285.568C44.8693 286.434 45.2227 287.654 45.2227 289.228L45.4027 289.548L45.4027 292.168L50.2227 292.168L50.2227 295.548L37.0227 295.548L37.0227 289.248ZM42.9627 289.728C42.9627 289.061 42.8293 288.561 42.5627 288.228C42.296 287.894 41.8693 287.728 41.2827 287.728C40.7093 287.728 40.2893 287.894 40.0227 288.228C39.756 288.561 39.6227 289.061 39.6227 289.728L39.6227 292.168L42.9627 292.168L42.9627 289.728ZM43.6827 287.708L50.2227 283.488L50.2227 287.288L44.4427 290.668L43.6827 287.708ZM37.0227 267.079L50.2227 267.079L50.2227 270.119L44.1627 270.119L40.1027 270.019L40.1027 270.059L50.2227 273.319L50.2227 276.099L40.1027 279.359L40.1027 279.399L44.1627 279.299L50.2227 279.299L50.2227 282.359L37.0227 282.359L37.0227 277.459L43.7427 275.379L46.5427 274.639L46.5427 274.599L43.7627 273.839L37.0227 271.779L37.0227 267.079ZM50.2227 252.755L50.2227 256.295L47.2427 257.215L47.2427 261.735L50.2227 262.675L50.2227 266.135L37.0227 261.495L37.0227 257.375L50.2227 252.755ZM44.9027 261.095L44.9027 257.855L39.5627 259.475L44.9027 261.095ZM46.4427 235.447C47.3627 235.7 48.1227 236.107 48.7227 236.667C49.3093 237.227 49.7427 237.894 50.0227 238.667C50.2893 239.44 50.4227 240.294 50.4227 241.227C50.4227 242.56 50.156 243.714 49.6227 244.687C49.076 245.66 48.296 246.407 47.2827 246.927C46.2693 247.447 45.0493 247.707 43.6227 247.707C42.196 247.707 40.976 247.447 39.9627 246.927C38.9493 246.407 38.176 245.66 37.6427 244.687C37.096 243.714 36.8227 242.567 36.8227 241.247C36.8227 240.327 36.956 239.48 37.2227 238.707C37.476 237.934 37.8693 237.28 38.4027 236.747C38.936 236.214 39.6227 235.834 40.4627 235.607L41.6827 238.627C40.856 238.814 40.2893 239.12 39.9827 239.547C39.676 239.96 39.5227 240.487 39.5227 241.127C39.5227 241.754 39.676 242.3 39.9827 242.767C40.2893 243.22 40.7493 243.574 41.3627 243.827C41.9627 244.067 42.716 244.187 43.6227 244.187C44.516 244.187 45.2693 244.074 45.8827 243.847C46.496 243.62 46.956 243.28 47.2627 242.827C47.5693 242.36 47.7227 241.787 47.7227 241.107C47.7227 240.467 47.5493 239.927 47.2027 239.487C46.8427 239.034 46.296 238.727 45.5627 238.567L46.4427 235.447ZM36.8227 228.214C36.8227 226.88 37.096 225.734 37.6427 224.774C38.176 223.8 38.9493 223.054 39.9627 222.534C40.976 222.014 42.196 221.754 43.6227 221.754C45.0493 221.754 46.2693 222.014 47.2827 222.534C48.296 223.054 49.076 223.8 49.6227 224.774C50.156 225.734 50.4227 226.88 50.4227 228.214C50.4227 229.547 50.156 230.7 49.6227 231.674C49.076 232.647 48.296 233.394 47.2827 233.914C46.2693 234.434 45.0493 234.694 43.6227 234.694C42.196 234.694 40.976 234.434 39.9627 233.914C38.9493 233.394 38.176 232.647 37.6427 231.674C37.096 230.7 36.8227 229.547 36.8227 228.214ZM39.5227 228.214C39.5227 228.854 39.676 229.394 39.9827 229.834C40.2893 230.274 40.7493 230.607 41.3627 230.834C41.9627 231.06 42.716 231.174 43.6227 231.174C44.516 231.174 45.2693 231.06 45.8827 230.834C46.496 230.607 46.956 230.274 47.2627 229.834C47.5693 229.394 47.7227 228.854 47.7227 228.214C47.7227 227.574 47.5693 227.04 47.2627 226.614C46.956 226.174 46.496 225.84 45.8827 225.614C45.2693 225.387 44.516 225.274 43.6227 225.274C42.716 225.274 41.9627 225.387 41.3627 225.614C40.7493 225.84 40.2893 226.174 39.9827 226.614C39.676 227.04 39.5227 227.574 39.5227 228.214ZM37.0227 204.707L50.2227 204.707L50.2227 207.747L44.1627 207.747L40.1027 207.647L40.1027 207.687L50.2227 210.947L50.2227 213.727L40.1027 216.987L40.1027 217.027L44.1627 216.927L50.2227 216.927L50.2227 219.987L37.0227 219.987L37.0227 215.087L43.7427 213.007L46.5427 212.267L46.5427 212.227L43.7627 211.467L37.0227 209.407L37.0227 204.707ZM36.8227 192.102C36.8227 190.875 37.016 189.795 37.4027 188.862C37.776 187.915 38.3293 187.095 39.0627 186.402L41.2827 188.062C40.6827 188.635 40.236 189.255 39.9427 189.922C39.636 190.575 39.4827 191.322 39.4827 192.162C39.4827 192.655 39.536 193.055 39.6427 193.362C39.7493 193.668 39.896 193.888 40.0827 194.022C40.2693 194.155 40.4827 194.222 40.7227 194.222C41.0027 194.222 41.2427 194.095 41.4427 193.842C41.6293 193.575 41.7893 193.148 41.9227 192.562L42.4227 190.342C42.7293 189.022 43.176 188.055 43.7627 187.442C44.3493 186.828 45.1293 186.522 46.1027 186.522C47.036 186.522 47.8293 186.762 48.4827 187.242C49.1227 187.722 49.6093 188.382 49.9427 189.222C50.2627 190.062 50.4227 191.022 50.4227 192.102C50.4227 192.982 50.3293 193.822 50.1427 194.622C49.9427 195.422 49.6627 196.142 49.3027 196.782C48.9427 197.422 48.5293 197.962 48.0627 198.402L45.7627 196.742C46.1493 196.408 46.496 196.002 46.8027 195.522C47.096 195.028 47.3293 194.495 47.5027 193.922C47.676 193.335 47.7627 192.742 47.7627 192.142C47.7627 191.675 47.716 191.288 47.6227 190.982C47.5293 190.662 47.3893 190.428 47.2027 190.282C47.016 190.135 46.796 190.062 46.5427 190.062C46.2627 190.062 46.0293 190.162 45.8427 190.362C45.6427 190.562 45.476 190.942 45.3427 191.502L44.8027 193.942C44.6293 194.688 44.4027 195.355 44.1227 195.942C43.8293 196.515 43.4427 196.968 42.9627 197.302C42.4693 197.635 41.856 197.802 41.1227 197.802C40.296 197.802 39.5627 197.575 38.9227 197.122C38.2693 196.668 37.756 196.015 37.3827 195.162C37.0093 194.308 36.8227 193.288 36.8227 192.102ZM36.8227 179.051C36.8227 177.718 37.096 176.571 37.6427 175.611C38.176 174.638 38.9493 173.891 39.9627 173.371C40.976 172.851 42.196 172.591 43.6227 172.591C45.0493 172.591 46.2693 172.851 47.2827 173.371C48.296 173.891 49.076 174.638 49.6227 175.611C50.156 176.571 50.4227 177.718 50.4227 179.051C50.4227 180.384 50.156 181.538 49.6227 182.511C49.076 183.484 48.296 184.231 47.2827 184.751C46.2693 185.271 45.0493 185.531 43.6227 185.531C42.196 185.531 40.976 185.271 39.9627 184.751C38.9493 184.231 38.176 183.484 37.6427 182.511C37.096 181.538 36.8227 180.384 36.8227 179.051ZM39.5227 179.051C39.5227 179.691 39.676 180.231 39.9827 180.671C40.2893 181.111 40.7493 181.444 41.3627 181.671C41.9627 181.898 42.716 182.011 43.6227 182.011C44.516 182.011 45.2693 181.898 45.8827 181.671C46.496 181.444 46.956 181.111 47.2627 180.671C47.5693 180.231 47.7227 179.691 47.7227 179.051C47.7227 178.411 47.5693 177.878 47.2627 177.451C46.956 177.011 46.496 176.678 45.8827 176.451C45.2693 176.224 44.516 176.111 43.6227 176.111C42.716 176.111 41.9627 176.224 41.3627 176.451C40.7493 176.678 40.2893 177.011 39.9827 177.451C39.676 177.878 39.5227 178.411 39.5227 179.051ZM47.5627 167.385L47.5627 160.765L50.2227 160.765L50.2227 170.825L37.0227 170.825L37.0227 167.385L47.5627 167.385ZM37.0227 155.954L50.2227 155.954L50.2227 159.394L37.0227 159.394L37.0227 155.954ZM37.0227 148.027C37.0227 145.96 37.596 144.38 38.7427 143.287C39.8893 142.18 41.516 141.627 43.6227 141.627C45.7293 141.627 47.356 142.18 48.5027 143.287C49.6493 144.38 50.2227 145.96 50.2227 148.027L50.2227 153.627L37.0227 153.627L37.0227 148.027ZM47.6227 148.367C47.6227 147.247 47.2893 146.433 46.6227 145.927C45.9427 145.407 44.9427 145.147 43.6227 145.147C42.3027 145.147 41.3093 145.407 40.6427 145.927C39.9627 146.433 39.6227 147.247 39.6227 148.367L39.6227 150.187L47.6227 150.187L47.6227 148.367ZM50.2227 128.359L50.2227 131.899L47.2427 132.819L47.2427 137.339L50.2227 138.279L50.2227 141.739L37.0227 137.099L37.0227 132.979L50.2227 128.359ZM44.9027 136.699L44.9027 133.459L39.5627 135.079L44.9027 136.699ZM37.0227 121.124C37.0227 119.551 37.396 118.331 38.1427 117.464C38.876 116.584 39.856 116.144 41.0827 116.144C42.4293 116.144 43.456 116.577 44.1627 117.444C44.8693 118.311 45.2227 119.531 45.2227 121.104L45.4027 121.424L45.4027 124.044L50.2227 124.044L50.2227 127.424L37.0227 127.424L37.0227 121.124ZM42.9627 121.604C42.9627 120.937 42.8293 120.437 42.5627 120.104C42.296 119.771 41.8693 119.604 41.2827 119.604C40.7093 119.604 40.2893 119.771 40.0227 120.104C39.756 120.437 39.6227 120.937 39.6227 121.604L39.6227 124.044L42.9627 124.044L42.9627 121.604ZM43.6827 119.584L50.2227 115.364L50.2227 119.164L44.4427 122.544L43.6827 119.584ZM37.0227 110.795L50.2227 110.795L50.2227 114.235L37.0227 114.235L37.0227 110.795ZM37.0227 97.3679L39.6827 97.3679L39.6827 101.668L50.2227 101.668L50.2227 105.108L39.6827 105.108L39.6827 109.428L37.0227 109.428L37.0227 97.3679ZM50.2227 96.0016L37.0227 96.0016L37.0227 85.7216L39.6827 85.7216L39.6827 92.5616L42.3627 92.5616L42.3627 87.1216L44.8627 87.1216L44.8627 92.5616L47.5627 92.5616L47.5627 85.4616L50.2227 85.4616L50.2227 96.0016ZM32.5027 91.2016L32.5027 88.1616L35.7627 89.9416L35.7627 92.4216L32.5027 91.2016ZM86.889 38.2443L80.689 45.6643L80.469 45.1443L77.329 48.9643L76.669 46.1843L83.069 38.2443H86.889ZM78.349 38.2443V51.4443H74.909V38.2443H78.349ZM81.809 42.6043L87.129 51.4443H83.229L79.229 44.5243L81.809 42.6043ZM100.776 51.4443H97.2362L96.3162 48.4643H91.7962L90.8562 51.4443H87.3962L92.0362 38.2443H96.1562L100.776 51.4443ZM92.4362 46.1243H95.6762L94.0562 40.7843L92.4362 46.1243ZM108.611 38.2443C110.185 38.2443 111.405 38.6177 112.271 39.3643C113.151 40.0977 113.591 41.0777 113.591 42.3043C113.591 43.651 113.158 44.6777 112.291 45.3843C111.425 46.091 110.205 46.4443 108.631 46.4443L108.311 46.6243H105.691V51.4443H102.311V38.2443H108.611ZM108.131 44.1843C108.798 44.1843 109.298 44.051 109.631 43.7843C109.965 43.5177 110.131 43.091 110.131 42.5043C110.131 41.931 109.965 41.511 109.631 41.2443C109.298 40.9777 108.798 40.8443 108.131 40.8443H105.691V44.1843H108.131ZM110.151 44.9043L114.371 51.4443H110.571L107.191 45.6643L110.151 44.9043ZM131.38 38.2443V51.4443H128.34V45.3843L128.44 41.3243H128.4L125.14 51.4443H122.36L119.1 41.3243H119.06L119.16 45.3843V51.4443H116.1V38.2443H121L123.08 44.9643L123.82 47.7643H123.86L124.62 44.9843L126.68 38.2443H131.38ZM146.304 51.4443H142.764L141.844 48.4643H137.324L136.384 51.4443H132.924L137.564 38.2443H141.684L146.304 51.4443ZM137.964 46.1243H141.204L139.584 40.7843L137.964 46.1243ZM164.812 47.6643C164.559 48.5843 164.152 49.3443 163.592 49.9443C163.032 50.531 162.365 50.9643 161.592 51.2443C160.819 51.511 159.965 51.6443 159.032 51.6443C157.699 51.6443 156.545 51.3777 155.572 50.8443C154.599 50.2977 153.852 49.5177 153.332 48.5043C152.812 47.491 152.552 46.271 152.552 44.8443C152.552 43.4177 152.812 42.1977 153.332 41.1843C153.852 40.171 154.599 39.3977 155.572 38.8643C156.545 38.3177 157.692 38.0443 159.012 38.0443C159.932 38.0443 160.779 38.1777 161.552 38.4443C162.325 38.6977 162.979 39.091 163.512 39.6243C164.045 40.1577 164.425 40.8443 164.652 41.6843L161.632 42.9043C161.445 42.0777 161.139 41.511 160.712 41.2043C160.299 40.8977 159.772 40.7443 159.132 40.7443C158.505 40.7443 157.959 40.8977 157.492 41.2043C157.039 41.511 156.685 41.971 156.432 42.5843C156.192 43.1843 156.072 43.9377 156.072 44.8443C156.072 45.7377 156.185 46.491 156.412 47.1043C156.639 47.7177 156.979 48.1777 157.432 48.4843C157.899 48.791 158.472 48.9443 159.152 48.9443C159.792 48.9443 160.332 48.771 160.772 48.4243C161.225 48.0643 161.532 47.5177 161.692 46.7843L164.812 47.6643ZM172.645 38.0443C173.979 38.0443 175.125 38.3177 176.085 38.8643C177.059 39.3977 177.805 40.171 178.325 41.1843C178.845 42.1977 179.105 43.4177 179.105 44.8443C179.105 46.271 178.845 47.491 178.325 48.5043C177.805 49.5177 177.059 50.2977 176.085 50.8443C175.125 51.3777 173.979 51.6443 172.645 51.6443C171.312 51.6443 170.159 51.3777 169.185 50.8443C168.212 50.2977 167.465 49.5177 166.945 48.5043C166.425 47.491 166.165 46.271 166.165 44.8443C166.165 43.4177 166.425 42.1977 166.945 41.1843C167.465 40.171 168.212 39.3977 169.185 38.8643C170.159 38.3177 171.312 38.0443 172.645 38.0443ZM172.645 40.7443C172.005 40.7443 171.465 40.8977 171.025 41.2043C170.585 41.511 170.252 41.971 170.025 42.5843C169.799 43.1843 169.685 43.9377 169.685 44.8443C169.685 45.7377 169.799 46.491 170.025 47.1043C170.252 47.7177 170.585 48.1777 171.025 48.4843C171.465 48.791 172.005 48.9443 172.645 48.9443C173.285 48.9443 173.819 48.791 174.245 48.4843C174.685 48.1777 175.019 47.7177 175.245 47.1043C175.472 46.491 175.585 45.7377 175.585 44.8443C175.585 43.9377 175.472 43.1843 175.245 42.5843C175.019 41.971 174.685 41.511 174.245 41.2043C173.819 40.8977 173.285 40.7443 172.645 40.7443ZM196.751 38.2443V51.4443H193.711V45.3843L193.811 41.3243H193.771L190.511 51.4443H187.731L184.471 41.3243H184.431L184.531 45.3843V51.4443H181.471V38.2443H186.371L188.451 44.9643L189.191 47.7643H189.231L189.991 44.9843L192.051 38.2443H196.751ZM210.557 38.0443C211.784 38.0443 212.864 38.2377 213.797 38.6243C214.744 38.9977 215.564 39.551 216.257 40.2843L214.597 42.5043C214.024 41.9043 213.404 41.4577 212.737 41.1643C212.084 40.8577 211.337 40.7043 210.497 40.7043C210.004 40.7043 209.604 40.7577 209.297 40.8643C208.991 40.971 208.771 41.1177 208.637 41.3043C208.504 41.491 208.437 41.7043 208.437 41.9443C208.437 42.2243 208.564 42.4643 208.817 42.6643C209.084 42.851 209.511 43.011 210.097 43.1443L212.317 43.6443C213.637 43.951 214.604 44.3977 215.217 44.9843C215.831 45.571 216.137 46.351 216.137 47.3243C216.137 48.2577 215.897 49.051 215.417 49.7043C214.937 50.3443 214.277 50.831 213.437 51.1643C212.597 51.4843 211.637 51.6443 210.557 51.6443C209.677 51.6443 208.837 51.551 208.037 51.3643C207.237 51.1643 206.517 50.8843 205.877 50.5243C205.237 50.1643 204.697 49.751 204.257 49.2843L205.917 46.9843C206.251 47.371 206.657 47.7177 207.137 48.0243C207.631 48.3177 208.164 48.551 208.737 48.7243C209.324 48.8977 209.917 48.9843 210.517 48.9843C210.984 48.9843 211.371 48.9377 211.677 48.8443C211.997 48.751 212.231 48.611 212.377 48.4243C212.524 48.2377 212.597 48.0177 212.597 47.7643C212.597 47.4843 212.497 47.251 212.297 47.0643C212.097 46.8643 211.717 46.6977 211.157 46.5643L208.717 46.0243C207.971 45.851 207.304 45.6243 206.717 45.3443C206.144 45.051 205.691 44.6643 205.357 44.1843C205.024 43.691 204.857 43.0777 204.857 42.3443C204.857 41.5177 205.084 40.7843 205.537 40.1443C205.991 39.491 206.644 38.9777 207.497 38.6043C208.351 38.231 209.371 38.0443 210.557 38.0443ZM224.208 38.0443C225.541 38.0443 226.688 38.3177 227.648 38.8643C228.621 39.3977 229.368 40.171 229.888 41.1843C230.408 42.1977 230.668 43.4177 230.668 44.8443C230.668 46.271 230.408 47.491 229.888 48.5043C229.368 49.5177 228.621 50.2977 227.648 50.8443C226.688 51.3777 225.541 51.6443 224.208 51.6443C222.875 51.6443 221.721 51.3777 220.748 50.8443C219.775 50.2977 219.028 49.5177 218.508 48.5043C217.988 47.491 217.728 46.271 217.728 44.8443C217.728 43.4177 217.988 42.1977 218.508 41.1843C219.028 40.171 219.775 39.3977 220.748 38.8643C221.721 38.3177 222.875 38.0443 224.208 38.0443ZM224.208 40.7443C223.568 40.7443 223.028 40.8977 222.588 41.2043C222.148 41.511 221.815 41.971 221.588 42.5843C221.361 43.1843 221.248 43.9377 221.248 44.8443C221.248 45.7377 221.361 46.491 221.588 47.1043C221.815 47.7177 222.148 48.1777 222.588 48.4843C223.028 48.791 223.568 48.9443 224.208 48.9443C224.848 48.9443 225.381 48.791 225.808 48.4843C226.248 48.1777 226.581 47.7177 226.808 47.1043C227.035 46.491 227.148 45.7377 227.148 44.8443C227.148 43.9377 227.035 43.1843 226.808 42.5843C226.581 41.971 226.248 41.511 225.808 41.2043C225.381 40.8977 224.848 40.7443 224.208 40.7443ZM236.474 48.7843H243.094V51.4443H233.034V38.2443H236.474V48.7843ZM248.505 38.2443V51.4443H245.065V38.2443H248.505ZM257.032 38.2443C259.099 38.2443 260.679 38.8177 261.772 39.9643C262.879 41.111 263.432 42.7377 263.432 44.8443C263.432 46.951 262.879 48.5777 261.772 49.7243C260.679 50.871 259.099 51.4443 257.032 51.4443H251.432V38.2443H257.032ZM256.692 48.8443C257.812 48.8443 258.626 48.511 259.132 47.8443C259.652 47.1643 259.912 46.1643 259.912 44.8443C259.912 43.5243 259.652 42.531 259.132 41.8643C258.626 41.1843 257.812 40.8443 256.692 40.8443H254.872V48.8443H256.692ZM277.3 51.4443H273.76L272.84 48.4643H268.32L267.38 51.4443H263.92L268.56 38.2443H272.68L277.3 51.4443ZM268.96 46.1243H272.2L270.58 40.7843L268.96 46.1243ZM285.135 38.2443C286.708 38.2443 287.928 38.6177 288.795 39.3643C289.675 40.0977 290.115 41.0777 290.115 42.3043C290.115 43.651 289.681 44.6777 288.815 45.3843C287.948 46.091 286.728 46.4443 285.155 46.4443L284.835 46.6243H282.215V51.4443H278.835V38.2443H285.135ZM284.655 44.1843C285.321 44.1843 285.821 44.051 286.155 43.7843C286.488 43.5177 286.655 43.091 286.655 42.5043C286.655 41.931 286.488 41.511 286.155 41.2443C285.821 40.9777 285.321 40.8443 284.655 40.8443H282.215V44.1843H284.655ZM286.675 44.9043L290.895 51.4443H287.095L283.715 45.6643L286.675 44.9043ZM296.064 38.2443V51.4443H292.624V38.2443H296.064ZM310.091 38.2443V40.9043H305.791V51.4443H302.351V40.9043H298.031V38.2443H310.091ZM312.057 51.4443V38.2443H322.337V40.9043H315.497V43.5843H320.937V46.0843H315.497V48.7843H322.597V51.4443H312.057ZM316.857 33.7243H319.897L318.117 36.9843H315.637L316.857 33.7243ZM362.534 95.9918L355.114 89.7918L355.634 89.5718L351.814 86.4318L354.594 85.7718L362.534 92.1718L362.534 95.9918ZM362.534 87.4518L349.334 87.4518L349.334 84.0118L362.534 84.0118L362.534 87.4518ZM358.174 90.9118L349.334 96.2318L349.334 92.3318L356.254 88.3318L358.174 90.9118ZM349.334 109.279L349.334 105.739L352.314 104.819L352.314 100.299L349.334 99.3591L349.334 95.8991L362.534 100.539L362.534 104.659L349.334 109.279ZM354.654 100.939L354.654 104.179L359.994 102.559L354.654 100.939ZM362.534 116.514C362.534 118.088 362.16 119.308 361.414 120.174C360.68 121.054 359.7 121.494 358.474 121.494C357.127 121.494 356.1 121.061 355.394 120.194C354.687 119.328 354.334 118.108 354.334 116.534L354.154 116.214L354.154 113.594L349.334 113.594L349.334 110.214L362.534 110.214L362.534 116.514ZM356.594 116.034C356.594 116.701 356.727 117.201 356.994 117.534C357.26 117.868 357.687 118.034 358.274 118.034C358.847 118.034 359.267 117.868 359.534 117.534C359.8 117.201 359.934 116.701 359.934 116.034L359.934 113.594L356.594 113.594L356.594 116.034ZM355.874 118.054L349.334 122.274L349.334 118.474L355.114 115.094L355.874 118.054ZM362.534 138.683L349.334 138.683L349.334 135.643L355.394 135.643L359.454 135.743L359.454 135.703L349.334 132.443L349.334 129.663L359.454 126.403L359.454 126.363L355.394 126.463L349.334 126.463L349.334 123.403L362.534 123.403L362.534 128.303L355.814 130.383L353.014 131.123L353.014 131.163L355.794 131.923L362.534 133.983L362.534 138.683ZM349.334 153.006L349.334 149.466L352.314 148.546L352.314 144.026L349.334 143.086L349.334 139.626L362.534 144.266L362.534 148.386L349.334 153.006ZM354.654 144.666L354.654 147.906L359.994 146.286L354.654 144.666ZM353.114 170.315C352.194 170.062 351.434 169.655 350.834 169.095C350.247 168.535 349.814 167.868 349.534 167.095C349.267 166.322 349.134 165.468 349.134 164.535C349.134 163.202 349.4 162.048 349.934 161.075C350.48 160.102 351.26 159.355 352.274 158.835C353.287 158.315 354.507 158.055 355.934 158.055C357.36 158.055 358.58 158.315 359.594 158.835C360.607 159.355 361.38 160.102 361.914 161.075C362.46 162.048 362.734 163.195 362.734 164.515C362.734 165.435 362.6 166.282 362.334 167.055C362.08 167.828 361.687 168.482 361.154 169.015C360.62 169.548 359.934 169.928 359.094 170.155L357.874 167.135C358.7 166.948 359.267 166.642 359.574 166.215C359.88 165.802 360.034 165.275 360.034 164.635C360.034 164.008 359.88 163.462 359.574 162.995C359.267 162.542 358.807 162.188 358.194 161.935C357.594 161.695 356.84 161.575 355.934 161.575C355.04 161.575 354.287 161.688 353.674 161.915C353.06 162.142 352.6 162.482 352.294 162.935C351.987 163.402 351.834 163.975 351.834 164.655C351.834 165.295 352.007 165.835 352.354 166.275C352.714 166.728 353.26 167.035 353.994 167.195L353.114 170.315ZM362.734 177.548C362.734 178.882 362.46 180.028 361.914 180.988C361.38 181.962 360.607 182.708 359.594 183.228C358.58 183.748 357.36 184.008 355.934 184.008C354.507 184.008 353.287 183.748 352.274 183.228C351.26 182.708 350.48 181.962 349.934 180.988C349.4 180.028 349.134 178.882 349.134 177.548C349.134 176.215 349.4 175.062 349.934 174.088C350.48 173.115 351.26 172.368 352.274 171.848C353.287 171.328 354.507 171.068 355.934 171.068C357.36 171.068 358.58 171.328 359.594 171.848C360.607 172.368 361.38 173.115 361.914 174.088C362.46 175.062 362.734 176.215 362.734 177.548ZM360.034 177.548C360.034 176.908 359.88 176.368 359.574 175.928C359.267 175.488 358.807 175.155 358.194 174.928C357.594 174.702 356.84 174.588 355.934 174.588C355.04 174.588 354.287 174.702 353.674 174.928C353.06 175.155 352.6 175.488 352.294 175.928C351.987 176.368 351.834 176.908 351.834 177.548C351.834 178.188 351.987 178.722 352.294 179.148C352.6 179.588 353.06 179.922 353.674 180.148C354.287 180.375 355.04 180.488 355.934 180.488C356.84 180.488 357.594 180.375 358.194 180.148C358.807 179.922 359.267 179.588 359.574 179.148C359.88 178.722 360.034 178.188 360.034 177.548ZM362.534 201.054L349.334 201.054L349.334 198.014L355.394 198.014L359.454 198.114L359.454 198.074L349.334 194.814L349.334 192.034L359.454 188.774L359.454 188.734L355.394 188.834L349.334 188.834L349.334 185.774L362.534 185.774L362.534 190.674L355.814 192.754L353.014 193.494L353.014 193.534L355.794 194.294L362.534 196.354L362.534 201.054ZM362.734 213.66C362.734 214.887 362.54 215.967 362.154 216.9C361.78 217.847 361.227 218.667 360.494 219.36L358.274 217.7C358.874 217.127 359.32 216.507 359.614 215.84C359.92 215.187 360.074 214.44 360.074 213.6C360.074 213.107 360.02 212.707 359.914 212.4C359.807 212.093 359.66 211.873 359.474 211.74C359.287 211.607 359.074 211.54 358.834 211.54C358.554 211.54 358.314 211.667 358.114 211.92C357.927 212.187 357.767 212.613 357.634 213.2L357.134 215.42C356.827 216.74 356.38 217.707 355.794 218.32C355.207 218.933 354.427 219.24 353.454 219.24C352.52 219.24 351.727 219 351.074 218.52C350.434 218.04 349.947 217.38 349.614 216.54C349.294 215.7 349.134 214.74 349.134 213.66C349.134 212.78 349.227 211.94 349.414 211.14C349.614 210.34 349.894 209.62 350.254 208.98C350.614 208.34 351.027 207.8 351.494 207.36L353.794 209.02C353.407 209.353 353.06 209.76 352.754 210.24C352.46 210.733 352.227 211.267 352.054 211.84C351.88 212.427 351.794 213.02 351.794 213.62C351.794 214.087 351.84 214.473 351.934 214.78C352.027 215.1 352.167 215.333 352.354 215.48C352.54 215.627 352.76 215.7 353.014 215.7C353.294 215.7 353.527 215.6 353.714 215.4C353.914 215.2 354.08 214.82 354.214 214.26L354.754 211.82C354.927 211.073 355.154 210.407 355.434 209.82C355.727 209.247 356.114 208.793 356.594 208.46C357.087 208.127 357.7 207.96 358.434 207.96C359.26 207.96 359.994 208.187 360.634 208.64C361.287 209.093 361.8 209.747 362.174 210.6C362.547 211.453 362.734 212.473 362.734 213.66ZM362.734 226.711C362.734 228.044 362.46 229.191 361.914 230.151C361.38 231.124 360.607 231.871 359.594 232.391C358.58 232.911 357.36 233.171 355.934 233.171C354.507 233.171 353.287 232.911 352.274 232.391C351.26 231.871 350.48 231.124 349.934 230.151C349.4 229.191 349.134 228.044 349.134 226.711C349.134 225.377 349.4 224.224 349.934 223.251C350.48 222.277 351.26 221.531 352.274 221.011C353.287 220.491 354.507 220.231 355.934 220.231C357.36 220.231 358.58 220.491 359.594 221.011C360.607 221.531 361.38 222.277 361.914 223.251C362.46 224.224 362.734 225.377 362.734 226.711ZM360.034 226.711C360.034 226.071 359.88 225.531 359.574 225.091C359.267 224.651 358.807 224.317 358.194 224.091C357.594 223.864 356.84 223.751 355.934 223.751C355.04 223.751 354.287 223.864 353.674 224.091C353.06 224.317 352.6 224.651 352.294 225.091C351.987 225.531 351.834 226.071 351.834 226.711C351.834 227.351 351.987 227.884 352.294 228.311C352.6 228.751 353.06 229.084 353.674 229.311C354.287 229.537 355.04 229.651 355.934 229.651C356.84 229.651 357.594 229.537 358.194 229.311C358.807 229.084 359.267 228.751 359.574 228.311C359.88 227.884 360.034 227.351 360.034 226.711ZM351.994 238.377L351.994 244.997L349.334 244.997L349.334 234.937L362.534 234.937L362.534 238.377L351.994 238.377ZM362.534 249.808L349.334 249.808L349.334 246.368L362.534 246.368L362.534 249.808ZM362.534 257.735C362.534 259.802 361.96 261.382 360.814 262.475C359.667 263.582 358.04 264.135 355.934 264.135C353.827 264.135 352.2 263.582 351.054 262.475C349.907 261.382 349.334 259.802 349.334 257.735L349.334 252.135L362.534 252.135L362.534 257.735ZM351.934 257.395C351.934 258.515 352.267 259.329 352.934 259.835C353.614 260.355 354.614 260.615 355.934 260.615C357.254 260.615 358.247 260.355 358.914 259.835C359.594 259.329 359.934 258.515 359.934 257.395L359.934 255.575L351.934 255.575L351.934 257.395ZM349.334 277.402L349.334 273.862L352.314 272.942L352.314 268.422L349.334 267.482L349.334 264.022L362.534 268.662L362.534 272.782L349.334 277.402ZM354.654 269.062L354.654 272.302L359.994 270.682L354.654 269.062ZM362.534 284.638C362.534 286.211 362.16 287.431 361.414 288.298C360.68 289.178 359.7 289.618 358.474 289.618C357.127 289.618 356.1 289.184 355.394 288.318C354.687 287.451 354.334 286.231 354.334 284.658L354.154 284.338L354.154 281.718L349.334 281.718L349.334 278.338L362.534 278.338L362.534 284.638ZM356.594 284.158C356.594 284.824 356.727 285.324 356.994 285.658C357.26 285.991 357.687 286.158 358.274 286.158C358.847 286.158 359.267 285.991 359.534 285.658C359.8 285.324 359.934 284.824 359.934 284.158L359.934 281.718L356.594 281.718L356.594 284.158ZM355.874 286.178L349.334 290.398L349.334 286.598L355.114 283.218L355.874 286.178ZM362.534 294.967L349.334 294.967L349.334 291.527L362.534 291.527L362.534 294.967ZM362.534 308.394L359.874 308.394L359.874 304.094L349.334 304.094L349.334 300.654L359.874 300.654L359.874 296.334L362.534 296.334L362.534 308.394ZM349.334 309.76L362.534 309.76L362.534 320.04L359.874 320.04L359.874 313.2L357.194 313.2L357.194 318.64L354.694 318.64L354.694 313.2L351.994 313.2L351.994 320.3L349.334 320.3L349.334 309.76ZM367.054 314.56L367.054 317.6L363.794 315.82L363.794 313.34L367.054 314.56Z" fill="#222222"></path>
<g filter="url(#filter0_d_171_2496)">
<rect x="68.4453" y="68.4443" width="263.111" height="263.111" fill="#CC336F"></rect>
<rect x="70.4453" y="70.4443" width="259.111" height="259.111" stroke="#222222" stroke-width="4"></rect>
</g>
<g filter="url(#filter1_d_171_2496)">
<path d="M160.279 131.722C162.558 131.722 165.011 133.217 167.482 136.594C169.931 139.94 172.199 144.878 174.13 151.115C177.986 163.57 180.393 180.868 180.393 200.04C180.393 219.212 177.986 236.51 174.13 248.964C172.199 255.201 169.931 260.138 167.482 263.484C165.011 266.861 162.558 268.357 160.279 268.357C158.001 268.357 155.549 266.861 153.077 263.484C150.628 260.138 148.36 255.201 146.43 248.964C142.574 236.51 140.166 219.212 140.166 200.04C140.166 180.868 142.574 163.57 146.43 151.115C148.36 144.878 150.628 139.94 153.077 136.594C155.549 133.217 158.001 131.722 160.279 131.722Z" fill="white" stroke="#222222" stroke-width="3"></path>
<mask id="path-6-inside-1_171_2496" fill="white">
<path d="M155.486 200.06C155.486 200.06 166.101 216.971 180.874 232.187C194.195 245.909 211.782 258.068 212.494 258.476C216.882 260.987 226.611 266.23 232.656 267.096C240.683 268.246 248.631 269.391 255.209 263.421C261.787 257.452 262.509 248.665 258.968 243.211C255.427 237.758 240.54 225.663 236.415 219.326C229.81 209.181 229.75 202.894 229.711 199.116C229.67 195.338 231.948 187.459 236.415 180.743C242.523 171.557 253.329 162.37 253.329 162.37C253.329 162.37 260.767 154.817 260.847 149.51C260.915 145.007 259.217 139.208 253.329 134.811C247.442 130.414 239.06 131.22 238.568 131.283C234.225 131.841 220.514 134.741 200.705 149.509C176.37 167.652 155.484 199.999 155.484 199.999"></path>
</mask>
<path d="M155.486 200.06C155.486 200.06 166.101 216.971 180.874 232.187C194.195 245.909 211.782 258.068 212.494 258.476C216.882 260.987 226.611 266.23 232.656 267.096C240.683 268.246 248.631 269.391 255.209 263.421C261.787 257.452 262.509 248.665 258.968 243.211C255.427 237.758 240.54 225.663 236.415 219.326C229.81 209.181 229.75 202.894 229.711 199.116C229.67 195.338 231.948 187.459 236.415 180.743C242.523 171.557 253.329 162.37 253.329 162.37C253.329 162.37 260.767 154.817 260.847 149.51C260.915 145.007 259.217 139.208 253.329 134.811C247.442 130.414 239.06 131.22 238.568 131.283C234.225 131.841 220.514 134.741 200.705 149.509C176.37 167.652 155.484 199.999 155.484 199.999" fill="white"></path>
<path d="M180.874 232.187L183.026 230.098L183.026 230.098L180.874 232.187ZM212.494 258.476L211.002 261.079L211.004 261.081L212.494 258.476ZM232.656 267.096L232.23 270.066L232.23 270.066L232.656 267.096ZM255.209 263.421L253.193 261.199L253.193 261.2L255.209 263.421ZM258.968 243.211L261.484 241.577L261.484 241.577L258.968 243.211ZM236.415 219.326L233.9 220.963L233.901 220.963L236.415 219.326ZM229.711 199.116L232.71 199.085V199.084L229.711 199.116ZM236.415 180.743L238.913 182.405L238.913 182.404L236.415 180.743ZM253.329 162.37L255.273 164.656L255.374 164.57L255.467 164.475L253.329 162.37ZM260.847 149.51L263.847 149.555L263.847 149.555L260.847 149.51ZM238.568 131.283L238.95 134.259L238.952 134.258L238.568 131.283ZM200.705 149.509L198.912 147.104L198.912 147.104L200.705 149.509ZM155.486 200.06C152.945 201.655 152.945 201.655 152.945 201.656C152.946 201.656 152.946 201.656 152.946 201.657C152.947 201.658 152.947 201.659 152.948 201.66C152.95 201.663 152.953 201.667 152.956 201.672C152.962 201.681 152.97 201.695 152.982 201.713C153.004 201.748 153.037 201.8 153.079 201.867C153.165 202 153.29 202.196 153.454 202.449C153.781 202.954 154.263 203.688 154.886 204.614C156.132 206.467 157.944 209.09 160.222 212.193C164.772 218.391 171.208 226.538 178.721 234.277L180.874 232.187L183.026 230.098C175.767 222.62 169.509 214.705 165.058 208.642C162.836 205.615 161.071 203.06 159.865 201.266C159.262 200.369 158.799 199.663 158.488 199.184C158.333 198.945 158.216 198.762 158.138 198.641C158.099 198.58 158.071 198.535 158.052 198.505C158.043 198.49 158.036 198.48 158.032 198.473C158.03 198.47 158.028 198.467 158.027 198.466C158.027 198.465 158.027 198.465 158.027 198.465C158.027 198.465 158.027 198.465 158.027 198.465C158.027 198.465 158.027 198.465 155.486 200.06ZM180.874 232.187L178.721 234.277C185.516 241.276 193.361 247.841 199.565 252.689C205.7 257.482 210.434 260.753 211.002 261.079L212.494 258.476L213.986 255.874C214.036 255.902 213.811 255.76 213.186 255.326C212.628 254.94 211.846 254.389 210.881 253.693C208.952 252.301 206.301 250.338 203.26 247.961C197.162 243.197 189.553 236.821 183.026 230.098L180.874 232.187ZM212.494 258.476L211.004 261.081C213.237 262.358 216.848 264.342 220.692 266.124C224.458 267.871 228.742 269.566 232.23 270.066L232.656 267.096L233.081 264.126C230.525 263.76 226.922 262.4 223.216 260.681C219.587 258.998 216.139 257.106 213.984 255.872L212.494 258.476ZM232.656 267.096L232.23 270.066C239.997 271.179 249.448 272.701 257.225 265.643L255.209 263.421L253.193 261.2C247.814 266.081 241.368 265.314 233.081 264.126L232.656 267.096ZM255.209 263.421L257.225 265.643C264.797 258.772 265.894 248.37 261.484 241.577L258.968 243.211L256.452 244.845C259.123 248.959 258.777 256.132 253.193 261.199L255.209 263.421ZM258.968 243.211L261.484 241.577C260.418 239.936 258.63 237.968 256.674 235.971C254.676 233.93 252.315 231.672 249.989 229.437C247.644 227.183 245.327 224.946 243.342 222.884C241.328 220.792 239.795 219.02 238.929 217.69L236.415 219.326L233.901 220.963C235.097 222.801 236.972 224.917 239.02 227.045C241.097 229.204 243.497 231.52 245.832 233.763C248.186 236.025 250.468 238.209 252.387 240.168C254.347 242.17 255.747 243.759 256.452 244.845L258.968 243.211ZM236.415 219.326L238.929 217.69C235.783 212.857 234.262 209.048 233.508 206.091C232.755 203.144 232.73 200.928 232.71 199.085L229.711 199.116L226.711 199.148C226.731 201.083 226.755 203.898 227.694 207.575C228.63 211.243 230.442 215.65 233.9 220.963L236.415 219.326ZM229.711 199.116L232.71 199.084C232.695 197.679 233.14 195.132 234.211 192.003C235.262 188.931 236.84 185.52 238.913 182.405L236.415 180.743L233.917 179.082C231.522 182.682 229.729 186.569 228.534 190.06C227.359 193.494 226.685 196.775 226.711 199.148L229.711 199.116ZM236.415 180.743L238.913 182.404C241.801 178.06 245.864 173.633 249.278 170.239C250.971 168.556 252.479 167.152 253.56 166.172C254.101 165.682 254.534 165.299 254.829 165.04C254.977 164.911 255.09 164.813 255.166 164.748C255.203 164.716 255.231 164.691 255.249 164.676C255.258 164.668 255.265 164.663 255.269 164.66C255.27 164.658 255.272 164.657 255.272 164.656C255.273 164.656 255.273 164.656 255.273 164.656C255.273 164.656 255.273 164.656 255.273 164.656C255.273 164.656 255.273 164.656 253.329 162.37C251.386 160.085 251.386 160.085 251.386 160.085C251.386 160.085 251.385 160.086 251.385 160.086C251.384 160.086 251.384 160.087 251.383 160.088C251.381 160.09 251.378 160.092 251.375 160.095C251.368 160.1 251.359 160.108 251.347 160.118C251.324 160.138 251.291 160.167 251.248 160.204C251.162 160.278 251.037 160.386 250.877 160.526C250.558 160.805 250.099 161.211 249.531 161.726C248.395 162.756 246.819 164.223 245.048 165.984C241.531 169.481 237.136 174.24 233.916 179.082L236.415 180.743ZM253.329 162.37C255.467 164.475 255.468 164.475 255.468 164.474C255.468 164.474 255.469 164.474 255.469 164.473C255.47 164.473 255.471 164.472 255.471 164.471C255.473 164.469 255.476 164.467 255.478 164.464C255.484 164.458 255.491 164.451 255.5 164.441C255.518 164.423 255.543 164.397 255.575 164.365C255.637 164.299 255.726 164.206 255.837 164.088C256.059 163.852 256.37 163.514 256.742 163.093C257.482 162.254 258.475 161.072 259.478 159.703C260.475 158.343 261.522 156.743 262.336 155.072C263.131 153.44 263.817 151.513 263.847 149.555L260.847 149.51L257.848 149.464C257.837 150.16 257.564 151.167 256.942 152.444C256.339 153.682 255.511 154.966 254.638 156.157C253.772 157.34 252.901 158.378 252.244 159.122C251.917 159.492 251.647 159.785 251.461 159.983C251.369 160.081 251.298 160.156 251.251 160.204C251.228 160.228 251.212 160.245 251.201 160.256C251.196 160.261 251.193 160.264 251.191 160.266C251.191 160.267 251.19 160.267 251.19 160.267C251.19 160.267 251.19 160.267 251.191 160.267C251.191 160.267 251.191 160.266 251.191 160.266C251.191 160.266 251.192 160.266 253.329 162.37ZM260.847 149.51L263.847 149.555C263.927 144.251 261.903 137.47 255.125 132.407L253.329 134.811L251.534 137.215C256.53 140.946 257.903 145.764 257.848 149.464L260.847 149.51ZM253.329 134.811L255.125 132.407C251.59 129.767 247.435 128.766 244.276 128.395C241.097 128.021 238.628 128.251 238.184 128.308L238.568 131.283L238.952 134.258C238.946 134.259 239.449 134.203 240.304 134.189C241.145 134.175 242.287 134.202 243.575 134.354C246.202 134.663 249.182 135.457 251.534 137.215L253.329 134.811ZM238.568 131.283L238.185 128.308C233.313 128.934 219.119 132.039 198.912 147.104L200.705 149.509L202.498 151.914C221.909 137.443 235.137 134.749 238.95 134.259L238.568 131.283ZM200.705 149.509L198.912 147.104C186.441 156.402 174.948 169.256 166.624 179.687C162.448 184.919 159.041 189.579 156.676 192.933C155.493 194.611 154.57 195.963 153.94 196.9C153.625 197.368 153.383 197.733 153.219 197.982C153.137 198.107 153.075 198.202 153.032 198.268C153.011 198.301 152.994 198.326 152.983 198.343C152.977 198.352 152.973 198.359 152.97 198.364C152.968 198.366 152.967 198.368 152.966 198.369C152.965 198.37 152.965 198.371 152.965 198.371C152.964 198.372 152.964 198.372 155.484 199.999C158.005 201.627 158.005 201.627 158.004 201.627C158.005 201.627 158.005 201.627 158.005 201.627C158.005 201.626 158.006 201.625 158.007 201.624C158.009 201.621 158.012 201.616 158.016 201.609C158.025 201.595 158.039 201.573 158.058 201.544C158.096 201.486 158.154 201.398 158.231 201.282C158.384 201.048 158.615 200.7 158.919 200.248C159.526 199.345 160.425 198.029 161.58 196.391C163.891 193.113 167.227 188.551 171.314 183.429C179.517 173.15 190.635 160.759 202.498 151.914L200.705 149.509Z" fill="#222222" mask="url(#path-6-inside-1_171_2496)"></path>
<path d="M176.535 168L178.313 175.778C178.313 175.778 179.329 190.951 179.405 201.981C179.482 213.135 176.535 232 176.535 232L174.5 241L148 201.981L176.535 168Z" fill="white"></path>
</g>
<path d="M88.44 350.8L82.24 358.22L82.02 357.7L78.88 361.52L78.22 358.74L84.62 350.8H88.44ZM79.9 350.8V364H76.46V350.8H79.9ZM83.36 355.16L88.68 364H84.78L80.78 357.08L83.36 355.16ZM102.327 364H98.7872L97.8672 361.02H93.3472L92.4072 364H88.9472L93.5872 350.8H97.7072L102.327 364ZM93.9872 358.68H97.2272L95.6072 353.34L93.9872 358.68ZM110.162 350.8C111.736 350.8 112.956 351.173 113.822 351.92C114.702 352.653 115.142 353.633 115.142 354.86C115.142 356.207 114.709 357.233 113.842 357.94C112.976 358.647 111.756 359 110.182 359L109.862 359.18H107.242V364H103.862V350.8H110.162ZM109.682 356.74C110.349 356.74 110.849 356.607 111.182 356.34C111.516 356.073 111.682 355.647 111.682 355.06C111.682 354.487 111.516 354.067 111.182 353.8C110.849 353.533 110.349 353.4 109.682 353.4H107.242V356.74H109.682ZM111.702 357.46L115.922 364H112.122L108.742 358.22L111.702 357.46ZM132.931 350.8V364H129.891V357.94L129.991 353.88H129.951L126.691 364H123.911L120.651 353.88H120.611L120.711 357.94V364H117.651V350.8H122.551L124.631 357.52L125.371 360.32H125.411L126.171 357.54L128.231 350.8H132.931ZM147.855 364H144.315L143.395 361.02H138.875L137.935 364H134.475L139.115 350.8H143.235L147.855 364ZM139.515 358.68H142.755L141.135 353.34L139.515 358.68ZM166.363 360.22C166.11 361.14 165.703 361.9 165.143 362.5C164.583 363.087 163.916 363.52 163.143 363.8C162.37 364.067 161.516 364.2 160.583 364.2C159.25 364.2 158.096 363.933 157.123 363.4C156.15 362.853 155.403 362.073 154.883 361.06C154.363 360.047 154.103 358.827 154.103 357.4C154.103 355.973 154.363 354.753 154.883 353.74C155.403 352.727 156.15 351.953 157.123 351.42C158.096 350.873 159.243 350.6 160.563 350.6C161.483 350.6 162.33 350.733 163.103 351C163.876 351.253 164.53 351.647 165.063 352.18C165.596 352.713 165.976 353.4 166.203 354.24L163.183 355.46C162.996 354.633 162.69 354.067 162.263 353.76C161.85 353.453 161.323 353.3 160.683 353.3C160.056 353.3 159.51 353.453 159.043 353.76C158.59 354.067 158.236 354.527 157.983 355.14C157.743 355.74 157.623 356.493 157.623 357.4C157.623 358.293 157.736 359.047 157.963 359.66C158.19 360.273 158.53 360.733 158.983 361.04C159.45 361.347 160.023 361.5 160.703 361.5C161.343 361.5 161.883 361.327 162.323 360.98C162.776 360.62 163.083 360.073 163.243 359.34L166.363 360.22ZM174.196 350.6C175.53 350.6 176.676 350.873 177.636 351.42C178.61 351.953 179.356 352.727 179.876 353.74C180.396 354.753 180.656 355.973 180.656 357.4C180.656 358.827 180.396 360.047 179.876 361.06C179.356 362.073 178.61 362.853 177.636 363.4C176.676 363.933 175.53 364.2 174.196 364.2C172.863 364.2 171.71 363.933 170.736 363.4C169.763 362.853 169.016 362.073 168.496 361.06C167.976 360.047 167.716 358.827 167.716 357.4C167.716 355.973 167.976 354.753 168.496 353.74C169.016 352.727 169.763 351.953 170.736 351.42C171.71 350.873 172.863 350.6 174.196 350.6ZM174.196 353.3C173.556 353.3 173.016 353.453 172.576 353.76C172.136 354.067 171.803 354.527 171.576 355.14C171.35 355.74 171.236 356.493 171.236 357.4C171.236 358.293 171.35 359.047 171.576 359.66C171.803 360.273 172.136 360.733 172.576 361.04C173.016 361.347 173.556 361.5 174.196 361.5C174.836 361.5 175.37 361.347 175.796 361.04C176.236 360.733 176.57 360.273 176.796 359.66C177.023 359.047 177.136 358.293 177.136 357.4C177.136 356.493 177.023 355.74 176.796 355.14C176.57 354.527 176.236 354.067 175.796 353.76C175.37 353.453 174.836 353.3 174.196 353.3ZM198.303 350.8V364H195.263V357.94L195.363 353.88H195.323L192.063 364H189.283L186.023 353.88H185.983L186.083 357.94V364H183.023V350.8H187.923L190.003 357.52L190.743 360.32H190.783L191.543 357.54L193.603 350.8H198.303ZM212.108 350.6C213.335 350.6 214.415 350.793 215.348 351.18C216.295 351.553 217.115 352.107 217.808 352.84L216.148 355.06C215.575 354.46 214.955 354.013 214.288 353.72C213.635 353.413 212.888 353.26 212.048 353.26C211.555 353.26 211.155 353.313 210.848 353.42C210.542 353.527 210.322 353.673 210.188 353.86C210.055 354.047 209.988 354.26 209.988 354.5C209.988 354.78 210.115 355.02 210.368 355.22C210.635 355.407 211.062 355.567 211.648 355.7L213.868 356.2C215.188 356.507 216.155 356.953 216.768 357.54C217.382 358.127 217.688 358.907 217.688 359.88C217.688 360.813 217.448 361.607 216.968 362.26C216.488 362.9 215.828 363.387 214.988 363.72C214.148 364.04 213.188 364.2 212.108 364.2C211.228 364.2 210.388 364.107 209.588 363.92C208.788 363.72 208.068 363.44 207.428 363.08C206.788 362.72 206.248 362.307 205.808 361.84L207.468 359.54C207.802 359.927 208.208 360.273 208.688 360.58C209.182 360.873 209.715 361.107 210.288 361.28C210.875 361.453 211.468 361.54 212.068 361.54C212.535 361.54 212.922 361.493 213.228 361.4C213.548 361.307 213.782 361.167 213.928 360.98C214.075 360.793 214.148 360.573 214.148 360.32C214.148 360.04 214.048 359.807 213.848 359.62C213.648 359.42 213.268 359.253 212.708 359.12L210.268 358.58C209.522 358.407 208.855 358.18 208.268 357.9C207.695 357.607 207.242 357.22 206.908 356.74C206.575 356.247 206.408 355.633 206.408 354.9C206.408 354.073 206.635 353.34 207.088 352.7C207.542 352.047 208.195 351.533 209.048 351.16C209.902 350.787 210.922 350.6 212.108 350.6ZM225.759 350.6C227.092 350.6 228.239 350.873 229.199 351.42C230.172 351.953 230.919 352.727 231.439 353.74C231.959 354.753 232.219 355.973 232.219 357.4C232.219 358.827 231.959 360.047 231.439 361.06C230.919 362.073 230.172 362.853 229.199 363.4C228.239 363.933 227.092 364.2 225.759 364.2C224.426 364.2 223.272 363.933 222.299 363.4C221.326 362.853 220.579 362.073 220.059 361.06C219.539 360.047 219.279 358.827 219.279 357.4C219.279 355.973 219.539 354.753 220.059 353.74C220.579 352.727 221.326 351.953 222.299 351.42C223.272 350.873 224.426 350.6 225.759 350.6ZM225.759 353.3C225.119 353.3 224.579 353.453 224.139 353.76C223.699 354.067 223.366 354.527 223.139 355.14C222.912 355.74 222.799 356.493 222.799 357.4C222.799 358.293 222.912 359.047 223.139 359.66C223.366 360.273 223.699 360.733 224.139 361.04C224.579 361.347 225.119 361.5 225.759 361.5C226.399 361.5 226.932 361.347 227.359 361.04C227.799 360.733 228.132 360.273 228.359 359.66C228.586 359.047 228.699 358.293 228.699 357.4C228.699 356.493 228.586 355.74 228.359 355.14C228.132 354.527 227.799 354.067 227.359 353.76C226.932 353.453 226.399 353.3 225.759 353.3ZM238.025 361.34H244.645V364H234.585V350.8H238.025V361.34ZM250.056 350.8V364H246.616V350.8H250.056ZM258.583 350.8C260.65 350.8 262.23 351.373 263.323 352.52C264.43 353.667 264.983 355.293 264.983 357.4C264.983 359.507 264.43 361.133 263.323 362.28C262.23 363.427 260.65 364 258.583 364H252.983V350.8H258.583ZM258.243 361.4C259.363 361.4 260.177 361.067 260.683 360.4C261.203 359.72 261.463 358.72 261.463 357.4C261.463 356.08 261.203 355.087 260.683 354.42C260.177 353.74 259.363 353.4 258.243 353.4H256.423V361.4H258.243ZM278.851 364H275.311L274.391 361.02H269.871L268.931 364H265.471L270.111 350.8H274.231L278.851 364ZM270.511 358.68H273.751L272.131 353.34L270.511 358.68ZM286.686 350.8C288.259 350.8 289.479 351.173 290.346 351.92C291.226 352.653 291.666 353.633 291.666 354.86C291.666 356.207 291.232 357.233 290.366 357.94C289.499 358.647 288.279 359 286.706 359L286.386 359.18H283.766V364H280.386V350.8H286.686ZM286.206 356.74C286.872 356.74 287.372 356.607 287.706 356.34C288.039 356.073 288.206 355.647 288.206 355.06C288.206 354.487 288.039 354.067 287.706 353.8C287.372 353.533 286.872 353.4 286.206 353.4H283.766V356.74H286.206ZM288.226 357.46L292.446 364H288.646L285.266 358.22L288.226 357.46ZM297.615 350.8V364H294.175V350.8H297.615ZM311.642 350.8V353.46H307.342V364H303.902V353.46H299.582V350.8H311.642ZM313.608 364V350.8H323.888V353.46H317.048V356.14H322.488V358.64H317.048V361.34H324.148V364H313.608ZM318.408 346.28H321.448L319.668 349.54H317.188L318.408 346.28Z" fill="#222222"></path>
<circle cx="355" cy="46" r="7.25" fill="#FFC72C" stroke="#222222" stroke-width="1.5"></circle>
<circle cx="357" cy="357" r="7.25" fill="#FFC72C" stroke="#222222" stroke-width="1.5"></circle>
<circle cx="44" cy="46" r="7.25" fill="#FFC72C" stroke="#222222" stroke-width="1.5"></circle>
<circle cx="44" cy="355" r="7.25" fill="#FFC72C" stroke="#222222" stroke-width="1.5"></circle>
</g>
<defs>
<filter id="filter0_d_171_2496" x="68.4453" y="68.4443" width="265.928" height="265.928" filterUnits="userSpaceOnUse" color-interpolation-filters="sRGB">
<feFlood flood-opacity="0" result="BackgroundImageFix"></feFlood>
<feColorMatrix in="SourceAlpha" type="matrix" values="0 0 0 0 0 0 0 0 0 0 0 0 0 0 0 0 0 0 127 0" result="hardAlpha"></feColorMatrix>
<feOffset dx="2.8169" dy="2.8169"></feOffset>
<feComposite in2="hardAlpha" operator="out"></feComposite>
<feColorMatrix type="matrix" values="0 0 0 0 0.133333 0 0 0 0 0.133333 0 0 0 0 0.133333 0 0 0 1 0"></feColorMatrix>
<feBlend mode="normal" in2="BackgroundImageFix" result="effect1_dropShadow_171_2496"></feBlend>
<feBlend mode="normal" in="SourceGraphic" in2="effect1_dropShadow_171_2496" result="shape"></feBlend>
</filter>
<filter id="filter1_d_171_2496" x="138.666" y="130.222" width="128.404" height="145.634" filterUnits="userSpaceOnUse" color-interpolation-filters="sRGB">
<feFlood flood-opacity="0" result="BackgroundImageFix"></feFlood>
<feColorMatrix in="SourceAlpha" type="matrix" values="0 0 0 0 0 0 0 0 0 0 0 0 0 0 0 0 0 0 127 0" result="hardAlpha"></feColorMatrix>
<feOffset dx="6" dy="6"></feOffset>
<feComposite in2="hardAlpha" operator="out"></feComposite>
<feColorMatrix type="matrix" values="0 0 0 0 0.133333 0 0 0 0 0.133333 0 0 0 0 0.133333 0 0 0 1 0"></feColorMatrix>
<feBlend mode="normal" in2="BackgroundImageFix" result="effect1_dropShadow_171_2496"></feBlend>
<feBlend mode="normal" in="SourceGraphic" in2="effect1_dropShadow_171_2496" result="shape"></feBlend>
</filter>
<clipPath id="clip0_171_2496">
<rect width="400" height="400" fill="white"></rect>
</clipPath>
</defs>
</svg>